<svg width="700" height="151" viewBox="0 0 700 151" fill="none" xmlns="http://www.w3.org/2000/svg">
<path d="M637.949 150.994C625.26 150.994 614.322 147.988 605.136 141.974C595.951 135.914 588.872 127.225 583.901 115.909C578.929 104.545 576.467 90.8854 576.514 74.929C576.562 58.9725 579.047 45.4309 583.972 34.304C588.943 23.1297 595.998 14.6307 605.136 8.80682C614.322 2.93561 625.26 0 637.949 0C650.638 0 661.576 2.93561 670.761 8.80682C679.994 14.6307 687.097 23.1297 692.068 34.304C697.04 45.4782 699.502 59.0199 699.455 74.929C699.455 90.9328 696.969 104.616 691.997 115.98C687.026 127.344 679.947 136.032 670.761 142.045C661.623 148.011 650.686 150.994 637.949 150.994ZM637.949 122.23C645.525 122.23 651.656 118.371 656.344 110.653C661.031 102.888 663.351 90.9801 663.304 74.929C663.304 64.4176 662.239 55.7528 660.108 48.9347C657.977 42.0691 655.018 36.9555 651.23 33.5938C647.442 30.232 643.015 28.5511 637.949 28.5511C630.421 28.5511 624.336 32.3627 619.696 39.9858C615.056 47.5616 612.712 59.2093 612.665 74.929C612.618 85.5824 613.636 94.4129 615.719 101.42C617.85 108.428 620.833 113.66 624.668 117.116C628.503 120.526 632.93 122.23 637.949 122.23Z" fill="#00BAF2"/>
<path d="M504.152 150.994C491.463 150.994 480.525 147.988 471.34 141.974C462.154 135.914 455.075 127.225 450.104 115.909C445.132 104.545 442.67 90.8854 442.717 74.929C442.765 58.9725 445.251 45.4309 450.175 34.304C455.146 23.1297 462.201 14.6307 471.34 8.80682C480.525 2.93561 491.463 0 504.152 0C516.841 0 527.779 2.93561 536.965 8.80682C546.198 14.6307 553.3 23.1297 558.271 34.304C563.243 45.4782 565.705 59.0199 565.658 74.929C565.658 90.9328 563.172 104.616 558.2 115.98C553.229 127.344 546.15 136.032 536.965 142.045C527.826 148.011 516.889 150.994 504.152 150.994ZM504.152 122.23C511.728 122.23 517.859 118.371 522.547 110.653C527.234 102.888 529.555 90.9801 529.507 74.929C529.507 64.4176 528.442 55.7528 526.311 48.9347C524.181 42.0691 521.221 36.9555 517.433 33.5938C513.645 30.232 509.218 28.5511 504.152 28.5511C496.624 28.5511 490.539 32.3627 485.899 39.9858C481.259 47.5616 478.915 59.2093 478.868 74.929C478.821 85.5824 479.839 94.4129 481.922 101.42C484.053 108.428 487.036 113.66 490.871 117.116C494.706 120.526 499.133 122.23 504.152 122.23Z" fill="#00BAF2"/>
<path d="M370.355 150.994C357.666 150.994 346.728 147.988 337.543 141.974C328.357 135.914 321.279 127.225 316.307 115.909C311.335 104.545 308.873 90.8854 308.921 74.929C308.968 58.9725 311.454 45.4309 316.378 34.304C321.35 23.1297 328.404 14.6307 337.543 8.80682C346.728 2.93561 357.666 0 370.355 0C383.045 0 393.982 2.93561 403.168 8.80682C412.401 14.6307 419.503 23.1297 424.475 34.304C429.446 45.4782 431.908 59.0199 431.861 74.929C431.861 90.9328 429.375 104.616 424.404 115.98C419.432 127.344 412.353 136.032 403.168 142.045C394.029 148.011 383.092 150.994 370.355 150.994ZM370.355 122.23C377.931 122.23 384.063 118.371 388.75 110.653C393.438 102.888 395.758 90.9801 395.71 74.929C395.71 64.4176 394.645 55.7528 392.514 48.9347C390.384 42.0691 387.424 36.9555 383.637 33.5938C379.849 30.232 375.422 28.5511 370.355 28.5511C362.827 28.5511 356.743 32.3627 352.102 39.9858C347.462 47.5616 345.119 59.2093 345.071 74.929C345.024 85.5824 346.042 94.4129 348.125 101.42C350.256 108.428 353.239 113.66 357.074 117.116C360.909 120.526 365.336 122.23 370.355 122.23Z" fill="#00BAF2"/>
<path d="M211.158 149.432C200.078 149.432 190.253 147.538 181.683 143.75C173.161 139.915 166.437 134.635 161.513 127.912C156.589 121.188 154.079 113.447 153.984 104.688H189.354C189.496 107.86 190.514 110.677 192.408 113.139C194.302 115.554 196.882 117.448 200.149 118.821C203.416 120.194 207.133 120.881 211.3 120.881C215.466 120.881 219.136 120.147 222.308 118.679C225.528 117.164 228.037 115.104 229.837 112.5C231.636 109.848 232.512 106.818 232.465 103.409C232.512 100 231.541 96.9697 229.553 94.3182C227.564 91.6667 224.747 89.607 221.101 88.1392C217.502 86.6714 213.241 85.9375 208.317 85.9375H194.183V60.9375H208.317C212.625 60.9375 216.413 60.2273 219.68 58.8068C222.995 57.3864 225.575 55.3977 227.422 52.8409C229.268 50.2367 230.168 47.2538 230.121 43.892C230.168 40.625 229.387 37.7604 227.777 35.2983C226.215 32.7888 224.013 30.8475 221.172 29.4744C218.378 28.1013 215.135 27.4148 211.442 27.4148C207.559 27.4148 204.032 28.1013 200.859 29.4744C197.734 30.8475 195.249 32.7888 193.402 35.2983C191.555 37.8078 190.585 40.7197 190.49 44.0341H156.896C156.991 35.3693 159.406 27.7462 164.141 21.1648C168.875 14.536 175.315 9.35133 183.459 5.6108C191.65 1.87027 200.978 0 211.442 0C221.858 0 231.02 1.82292 238.928 5.46875C246.835 9.11458 252.99 14.0862 257.393 20.3835C261.797 26.6335 263.999 33.7121 263.999 41.6193C264.046 49.8106 261.371 56.5578 255.973 61.8608C250.623 67.1638 243.733 70.4309 235.305 71.6619V72.7983C246.574 74.1241 255.073 77.7699 260.803 83.7358C266.579 89.7017 269.444 97.1591 269.396 106.108C269.396 114.536 266.911 122.017 261.939 128.551C257.015 135.038 250.149 140.152 241.342 143.892C232.583 147.585 222.521 149.432 211.158 149.432Z" fill="#00BAF2"/>
<path d="M143.677 1.98877V147.443H108.592V34.8013H107.739L75.2109 54.6876V24.2899L111.077 1.98877H143.677Z" fill="#00BAF2"/>
<path d="M55.2109 94.902L0.210938 118V100.752L36.5231 87.152L35.9913 88.0257V86.0123L36.5231 86.848L0.210938 73.2855V56L55.2109 79.098V94.902Z" fill="#00BAF2"/>
</svg>
