<svg width="310" height="145" viewBox="0 0 310 145" fill="none" xmlns="http://www.w3.org/2000/svg">
<path d="M281.423 129.604V126.295C281.423 123.723 281.973 121.344 283.072 119.159C284.192 116.974 285.81 115.217 287.926 113.89C290.043 112.563 292.628 111.899 295.681 111.899C298.795 111.899 301.411 112.563 303.528 113.89C305.665 115.197 307.273 116.943 308.351 119.128C309.45 121.292 310 123.682 310 126.295V129.604C310 132.177 309.45 134.556 308.351 136.741C307.252 138.926 305.634 140.682 303.497 142.009C301.36 143.336 298.755 144 295.681 144C292.587 144 289.982 143.336 287.865 142.009C285.749 140.682 284.141 138.926 283.042 136.741C281.963 134.556 281.423 132.177 281.423 129.604ZM291.163 126.295V129.604C291.163 130.911 291.478 132.166 292.109 133.371C292.76 134.576 293.951 135.178 295.681 135.178C297.452 135.178 298.643 134.596 299.253 133.432C299.864 132.248 300.169 130.972 300.169 129.604V126.295C300.169 124.927 299.874 123.641 299.284 122.436C298.714 121.211 297.513 120.598 295.681 120.598C293.971 120.598 292.791 121.211 292.14 122.436C291.488 123.641 291.163 124.927 291.163 126.295ZM249 93.7045V90.3964C249 87.7826 249.56 85.3934 250.679 83.2288C251.819 81.0438 253.447 79.2979 255.564 77.991C257.681 76.6637 260.245 76 263.258 76C266.372 76 268.987 76.6637 271.104 77.991C273.241 79.2979 274.859 81.0438 275.958 83.2288C277.058 85.3934 277.607 87.7826 277.607 90.3964V93.7045C277.607 96.3183 277.047 98.7075 275.928 100.872C274.829 103.037 273.211 104.762 271.074 106.049C268.936 107.335 266.331 107.978 263.258 107.978C260.184 107.978 257.579 107.325 255.442 106.018C253.325 104.711 251.717 102.975 250.618 100.811C249.539 98.6462 249 96.2775 249 93.7045ZM258.831 90.3964V93.7045C258.831 95.0727 259.146 96.3489 259.777 97.5333C260.429 98.6973 261.589 99.2793 263.258 99.2793C265.049 99.2793 266.24 98.6973 266.83 97.5333C267.44 96.3489 267.746 95.0727 267.746 93.7045V90.3964C267.746 89.0282 267.461 87.7417 266.891 86.5369C266.321 85.3117 265.11 84.6991 263.258 84.6991C261.548 84.6991 260.378 85.3219 259.747 86.5676C259.136 87.8132 258.831 89.0895 258.831 90.3964ZM253.61 141.366L296.597 78.6342H304.932L261.945 141.366H253.61Z" fill="#00BAF2"/>
<path d="M169.942 144.3C157.815 144.3 147.363 141.427 138.584 135.68C129.806 129.888 123.041 121.585 118.29 110.77C113.539 99.9103 111.186 86.8559 111.231 71.6069C111.276 56.3579 113.652 43.4167 118.358 32.7831C123.109 22.1043 129.851 13.982 138.584 8.41637C147.363 2.80546 157.815 0 169.942 0C182.069 0 192.521 2.80546 201.3 8.41637C210.123 13.982 216.911 22.1043 221.662 32.7831C226.413 43.4619 228.766 56.4032 228.721 71.6069C228.721 86.9012 226.345 99.9782 221.594 110.838C216.843 121.698 210.078 130.001 201.3 135.748C192.567 141.449 182.114 144.3 169.942 144.3ZM169.942 116.811C177.182 116.811 183.042 113.123 187.521 105.747C192.001 98.3266 194.218 86.9464 194.173 71.6069C194.173 61.5616 193.155 53.281 191.119 46.7651C189.082 40.204 186.254 35.317 182.634 32.1043C179.014 28.8916 174.784 27.2853 169.942 27.2853C162.747 27.2853 156.933 30.9279 152.498 38.213C148.064 45.4529 145.824 56.5842 145.779 71.6069C145.734 81.788 146.707 90.227 148.697 96.9239C150.734 103.621 153.584 108.621 157.25 111.924C160.915 115.182 165.146 116.811 169.942 116.811Z" fill="#00BAF2"/>
<path d="M2.03622 143.906V119.743L52.738 75.3536C56.5389 71.9146 59.7743 68.7698 62.444 65.9191C65.1137 63.0231 67.1499 60.1272 68.5526 57.2312C69.9554 54.29 70.6567 51.1 70.6567 47.661C70.6567 43.8148 69.8196 40.5343 68.1454 37.8193C66.4712 35.0591 64.1634 32.9324 61.2222 31.4392C58.281 29.9459 54.91 29.1993 51.109 29.1993C47.2628 29.1993 43.8918 29.9912 40.9958 31.5749C38.0999 33.1134 35.8374 35.3532 34.2084 38.2944C32.6247 41.2356 31.8328 44.8103 31.8328 49.0185H0C0 39.5614 2.12672 31.3939 6.38015 24.516C10.6336 17.6381 16.6065 12.344 24.2989 8.63353C32.0365 4.87784 41.0184 3 51.2448 3C61.7879 3 70.9508 4.76472 78.7337 8.29417C86.5166 11.8236 92.5347 16.7558 96.7882 23.0907C101.087 29.3803 103.236 36.6881 103.236 45.0139C103.236 50.3081 102.173 55.557 100.046 60.7607C97.9194 65.9643 94.0958 71.711 88.5754 78.0006C83.1003 84.2903 75.3174 91.8243 65.2268 100.603L48.5977 115.942V116.824H104.933V143.906H2.03622Z" fill="#00BAF2"/>
</svg>
