<svg width="845" height="397" viewBox="0 0 845 397" fill="none" xmlns="http://www.w3.org/2000/svg">
<g clip-path="url(#clip0_482_2180)">
<path d="M702.9 142.42L734.379 214.9L766.645 266.787L800.078 293.911" stroke="white" stroke-opacity="0.2" stroke-width="1.20884" stroke-linecap="round" stroke-linejoin="round"/>
<path d="M586.926 132.018L619.205 194.687L651.405 265.186L684.392 309.794L718.244 334.597" stroke="white" stroke-opacity="0.2" stroke-width="1.20884" stroke-linecap="round" stroke-linejoin="round"/>
<path d="M557.877 162.408L590.339 222.637L622.894 285.109L656.104 325.835L690.114 348.592" stroke="white" stroke-opacity="0.2" stroke-width="1.20884" stroke-linecap="round" stroke-linejoin="round"/>
<path d="M615.381 116.397L647.555 174.895L679.545 245.683L712.257 294.042L745.952 320.825" stroke="white" stroke-opacity="0.2" stroke-width="1.20884" stroke-linecap="round" stroke-linejoin="round"/>
<path d="M466.014 198.478L498.515 256.006L531.332 297.348L564.568 330.23L598.224 358.325L632.497 377.238L661.536 362.797L690.116 348.592L718.25 334.597L745.951 320.826L773.22 307.263L800.081 293.911L826.537 280.756L852.598 267.797" stroke="white" stroke-opacity="0.2" stroke-width="1.20884" stroke-linecap="round" stroke-linejoin="round"/>
<path d="M680.159 44.2064L623.13 37.0842L596.61 49.7676L585.369 58.2274L569.59 70.1107L542.06 106.482L511.211 106.613L480.637 143.548L450.811 167.918L423.424 179.407L395.644 191.054L367.458 202.872L338.878 214.873L309.865 227.032L280.485 215.7L251.459 202.02L222.315 166.632L193.748 145.45L165.574 126.93L135.984 139.337L106.289 160.848L76.4372 188.366L45.9684 209.129L14.9225 225.996L-12.6608 212.093L-44.0738 229.826L-71.1062 218.952L-97.7975 207.961L-124.056 198.321L-156.125 210.243" stroke="white" stroke-opacity="0.2" stroke-width="1.20884" stroke-linecap="round" stroke-linejoin="round"/>
<path d="M466.009 198.478L435.894 242.509L405.518 286.107L374.813 324.236L343.74 357.092L312.17 380.294L280.022 396.978L247.914 383.232" stroke="white" stroke-opacity="0.2" stroke-width="1.20884" stroke-linecap="round" stroke-linejoin="round"/>
<path d="M711.523 59.6296L723.551 73.9786" stroke="white" stroke-opacity="0.2" stroke-width="1.20884" stroke-linecap="round" stroke-linejoin="round"/>
<path d="M495.641 186.174L528.247 215.646L560.893 266.641L593.972 305.006L627.392 341.456L661.533 362.796" stroke="white" stroke-opacity="0.2" stroke-width="1.20884" stroke-linecap="round" stroke-linejoin="round"/>
<path d="M586.927 132.018L557.875 162.408L528.246 215.647L498.511 256.005L468.515 287.785L438.177 317.402L407.472 351.609L376.361 377.46L344.764 395.757L312.17 380.294L280.023 363.767L248.321 347.385L217.118 333.495L186.452 323.291L154.396 343.188" stroke="white" stroke-opacity="0.2" stroke-width="1.20884" stroke-linecap="round" stroke-linejoin="round"/>
<path d="M826.536 280.756L793.103 256.609L760.772 211.949L729.188 151.444L697.382 102.599L681.42 93.4442L665.011 84.0269L632.772 77.1147L601.096 65.1396L569.591 70.1107L538.585 77.5868L537.195 79.0296L535.398 80.9184L512.012 105.393L510.49 106.613L507.906 109.275L477.897 139.088L448.582 146.184L421.55 157.359L394.124 168.691L366.331 180.194L337.383 168.285L309.171 180.994L280.551 192.668L251.46 202.02L222.053 216.526L192.162 228.711L161.824 241.079L130.962 251.074L102.408 240.896L74.051 225.983L45.9694 209.129L18.2288 192.274L-8.67239 186.162L-39.6921 202.098L-71.1051 218.953L-103.135 232.921" stroke="white" stroke-opacity="0.2" stroke-width="1.20884" stroke-linecap="round" stroke-linejoin="round"/>
<path d="M448.58 146.184L475.324 115.4L504.835 94.5322" stroke="white" stroke-opacity="0.2" stroke-width="1.20884" stroke-linecap="round" stroke-linejoin="round"/>
<path d="M460.498 177.493L480.631 143.548L507.9 109.276L510.615 106.613L512.005 105.393L535.391 80.9185L538.578 77.5869L556.613 65.7299L565.506 59.8801L574.044 54.5419L592.092 43.2358" stroke="white" stroke-opacity="0.2" stroke-width="1.20884" stroke-linecap="round" stroke-linejoin="round"/>
<path d="M185.119 356.344L217.123 333.495L248.562 304.968L269.718 290.015L279.713 282.959L290.665 279.142L305.84 273.87L310.601 272.204L335.666 261.003L341.542 257.802L363.734 247.834L373.126 243.611" stroke="white" stroke-opacity="0.2" stroke-width="1.20884" stroke-linecap="round" stroke-linejoin="round"/>
<path d="M216.293 369.683L248.322 347.385L279.618 308.234" stroke="white" stroke-opacity="0.2" stroke-width="1.20884" stroke-linecap="round" stroke-linejoin="round"/>
<path d="M903.564 242.468L870.144 225.208L844.843 235.661L819.162 246.233L793.1 256.608L766.645 266.786L739.717 278.446L712.252 294.041L684.394 309.794L656.102 325.835L627.391 341.456L598.221 358.323L568.618 375.466L538.555 391.428L508.021 407.548L474.024 392.832L440.526 373.984L407.473 351.608L374.814 324.235L342.482 292.979L310.702 277.62L279.709 282.958L249.227 286.29L219.086 280.794L189.47 277.541L160.05 265.5L130.959 251.073L99.7948 266.379L71.2017 254.509L42.8839 240.514L11.2347 254.352L-20.8867 268.137" stroke="white" stroke-opacity="0.2" stroke-width="1.20884" stroke-linecap="round" stroke-linejoin="round"/>
<path d="M610.604 92.054L643.223 109.052L675.476 156.533L707.282 226.101L739.719 278.447L773.217 307.263" stroke="white" stroke-opacity="0.2" stroke-width="1.20884" stroke-linecap="round" stroke-linejoin="round"/>
<path d="M124.139 330.23L156.234 313.074L187.817 294.187L219.086 280.795L250.067 276.65L275.486 280.27" stroke="white" stroke-opacity="0.2" stroke-width="1.20884" stroke-linecap="round" stroke-linejoin="round"/>
<path d="M94.3047 317.453L126.452 302.304L158.075 285.633L187.823 294.185L217.99 301.189L249.232 286.289L280.173 280.924L295.48 276.544" stroke="white" stroke-opacity="0.2" stroke-width="1.20884" stroke-linecap="round" stroke-linejoin="round"/>
<path d="M280.021 396.978L312.615 410.933L345.707 425.099L377.828 409.897L409.425 393.987L442.963 408.769L474.022 392.833L504.622 374.392L534.789 353.419L564.563 330.23L593.969 305.007L622.89 285.11L651.405 265.187L679.539 245.683L707.279 226.101L734.377 214.9L760.767 211.948L786.711 209.404L812.274 205.456L837.47 200.275L862.325 194.124L895.05 214.847L928.496 230.075" stroke="white" stroke-opacity="0.2" stroke-width="1.20884" stroke-linecap="round" stroke-linejoin="round"/>
<path d="M-76.0957 244.501L-44.0792 229.824L-16.6141 241.891L14.9171 225.994L42.8806 240.514L74.0446 225.981L104.526 205.179L134.366 176.415L164.179 158.145L193.742 145.448L223.123 142.799L251.873 132.293L280.191 119.504L308.246 117.38L319.5 128.66L336.656 145.855L365.209 158.132L392.648 146.943L419.707 135.9L446.398 125.013L475.319 115.399L501.788 88.616L524.623 81.9661L534.093 76.1032L534.906 75.4211L537.988 73.7424L555 65.2169L565.506 59.8786L577.979 55.8257L596.604 49.7661L627.991 51.6416L654.355 44.8738L685.938 55.7732L711.515 59.6294L724.88 73.8079L735.202 85.2582L735.911 86.0322L766.891 117.157L767.612 117.734L770.996 120.082L785.686 130.535L790.854 134.208L807.328 144.622L822.359 154.118L846.296 156.597L878.391 168.716L902.276 161.699L934.777 172.31" stroke="white" stroke-opacity="0.2" stroke-width="1.20884" stroke-linecap="round" stroke-linejoin="round"/>
<path d="M1001.13 193.965L967.734 183.066L943.902 192.929L919.65 204.025L895.058 214.846L870.15 225.208L837.478 200.274L805.343 171.064L780.305 168.021L748.826 123.649L741.022 111.386L719.052 76.8904L717.701 74.7787L685.947 55.7735L659.61 63.9185L628 51.6418L601.099 65.1384L573.647 90.9771L545.972 109.589L517.785 142.812L489.284 180.928L458.002 197.375L448.873 205.704" stroke="white" stroke-opacity="0.2" stroke-width="1.20884" stroke-linecap="round" stroke-linejoin="round"/>
<path d="M64.8848 304.863L97.0981 291.55L128.813 278.421L158.075 285.635L189.475 277.543L220.245 264.623L250.071 276.651L280.37 263.757L310.222 251.048L334.343 260.492" stroke="white" stroke-opacity="0.2" stroke-width="1.20884" stroke-linecap="round" stroke-linejoin="round"/>
<path d="M-129.803 221.509L-97.7993 207.96L-66.2026 195.277L-39.695 202.097L-12.6627 212.092L18.2259 192.274L48.7471 173.137L78.7961 152.322L104.74 135.363L108.53 132.884L127.732 122.456L132.139 120.069L137.989 116.895L149.951 111.439L160.995 106.402L167.133 103.595L194.848 118.062L223.126 142.799L251.719 168.992L280.548 192.667L309.509 203.684L338.115 191.854L366.328 180.193L395.642 191.054L425.351 202.058L453.104 189.978L471.769 172.429" stroke="white" stroke-opacity="0.2" stroke-width="1.20884" stroke-linecap="round" stroke-linejoin="round"/>
<path d="M7.30469 280.206L39.4917 267.26L71.2066 254.511L102.41 240.897L132.866 218.468" stroke="white" stroke-opacity="0.2" stroke-width="1.20884" stroke-linecap="round" stroke-linejoin="round"/>
<path d="M573.018 406.816L542.549 421.952L508.027 407.55L477.008 423.001L442.971 408.77L411.401 424.05L377.836 409.898L344.771 395.759L312.623 410.934" stroke="white" stroke-opacity="0.2" stroke-width="1.20884" stroke-linecap="round" stroke-linejoin="round"/>
<path d="M524.85 170.553L557.876 162.408" stroke="white" stroke-opacity="0.2" stroke-width="1.20884" stroke-linecap="round" stroke-linejoin="round"/>
<path d="M514.434 126.128L542.056 106.48L573.64 90.9771L605.617 87.1604L633.909 84.9568L638.106 84.6289L670.739 97.7975L702.899 142.419L729.184 151.443L754.918 161.726L780.298 168.021L782.999 171.182L812.275 205.455L844.842 235.661L878.262 255.034" stroke="white" stroke-opacity="0.2" stroke-width="1.20884" stroke-linecap="round" stroke-linejoin="round"/>
<path d="M-124.053 198.321L-92.4429 186.555L-66.1975 195.278L-35.0467 182.87L-8.67021 186.162L12.1451 174.633L21.8904 169.229L38.3248 160.231L52.0575 152.703L62.9701 147.417L81.8967 138.236L99.2756 134.747L108.535 132.884L135.988 139.337L164.187 158.146L193.148 193.546L222.056 216.526L251.042 227.871L280.435 239.387L310.222 251.047L339.642 238.535L368.628 226.192L397.195 214.047L425.356 202.059L446.604 202.413" stroke="white" stroke-opacity="0.2" stroke-width="1.20884" stroke-linecap="round" stroke-linejoin="round"/>
<path d="M486.385 155.011L486.883 154.617L514.44 126.129L545.971 109.59L578.08 95.5031L610.608 92.0535L638.112 84.6298L665.013 84.0265L691.6 78.3341L717.701 74.7795L742.543 96.6704L766.899 117.158L767.621 117.735L773.339 123.139L779.53 128.884L780.999 130.248L781.275 130.51L795.768 143.98L798.234 146.276L830.08 170.934L854.397 170.672L878.4 168.717L910.928 180.915L934.786 172.311L967.734 183.066" stroke="white" stroke-opacity="0.2" stroke-width="1.20884" stroke-linecap="round" stroke-linejoin="round"/>
<path d="M602.994 391.902L573.011 406.815L538.555 391.429L504.623 374.392L471.177 351.963L438.177 317.402L405.518 286.107L373.121 243.611" stroke="white" stroke-opacity="0.2" stroke-width="1.20884" stroke-linecap="round" stroke-linejoin="round"/>
<path d="M-92.4453 186.555L-61.2814 174.974L-35.0491 182.87L-4.34423 170.344L4.40413 166.685L25.9277 157.674L37.6143 152.913L55.7801 145.502L81.8943 138.236L92.1248 133.947L99.6272 130.799L111.406 125.854L122.633 122.077L137.992 116.896L165.575 126.929L194.85 118.063L223.771 112.567L251.879 132.294L280.394 157.372L309.17 180.994L338.118 191.854L367.459 202.872L397.193 214.047L412.88 219.936" stroke="white" stroke-opacity="0.2" stroke-width="1.20884" stroke-linecap="round" stroke-linejoin="round"/>
<path d="M505.15 181.086L524.851 170.554L553.733 148.309L586.929 132.019L615.378 116.397" stroke="white" stroke-opacity="0.2" stroke-width="1.20884" stroke-linecap="round" stroke-linejoin="round"/>
<path d="M632.493 377.238L602.995 391.902L568.618 375.467L534.791 353.419L501.463 322.806L468.515 287.786L435.896 242.509L403.604 224.776L399.59 226.953L399.472 227.019L399.289 227.111L397.19 228.252L371.954 241.932L361.96 247.152L341.538 257.803L335.662 261.003L310.702 277.621L308.485 279.825L279.617 308.234L248.558 304.968L217.984 301.191L186.453 323.291L156.234 313.074L126.447 302.306L97.093 291.55L68.0932 279.313L39.4869 267.259L11.2347 254.353L-16.6108 241.893L-48.6797 256.242" stroke="white" stroke-opacity="0.2" stroke-width="1.20884" stroke-linecap="round" stroke-linejoin="round"/>
<path d="M-61.2793 174.974L-30.5614 163.55L-0.263047 152.283L29.6154 141.173L59.0743 130.208L88.1395 119.401L116.798 108.75L145.077 98.2312L172.975 87.8563L200.492 77.6258L226.895 85.9151L253.639 95.0833L280.711 102.73L307.992 100.054L335.969 123.781L363.106 115.741L389.837 105.13L416.2 94.6637L442.236 82.4132L467.904 73.4679L493.244 62.8308L518.244 53.6495L542.915 44.3765L570.852 53.4921L572.335 53.9774" stroke="white" stroke-opacity="0.2" stroke-width="1.20884" stroke-linecap="round" stroke-linejoin="round"/>
<path d="M196.084 98.2705L199.324 99.9363L223.772 112.567L252.3 109.59L265.652 107.635L280.368 105.498L308.253 117.381L335.968 123.781L364.141 136.648L392.655 146.944L421.55 157.359L445.067 165.845" stroke="white" stroke-opacity="0.2" stroke-width="1.20884" stroke-linecap="round" stroke-linejoin="round"/>
<path d="M702.899 142.42L675.473 156.533L647.549 174.896L619.205 194.688L590.336 222.638L560.89 266.643L531.327 297.348L501.461 322.806L471.176 351.963L440.524 373.985L409.425 393.987L376.36 377.461L343.74 357.092L311.487 333.089L279.615 308.234" stroke="white" stroke-opacity="0.2" stroke-width="1.20884" stroke-linecap="round" stroke-linejoin="round"/>
<path d="M337.385 168.285L365.217 158.133L394.125 168.692L423.427 179.408L446.183 187.513" stroke="white" stroke-opacity="0.2" stroke-width="1.20884" stroke-linecap="round" stroke-linejoin="round"/>
<path d="M200.492 77.6265L227.656 67.514L254.072 76.8133L280.868 66.832L307.612 76.223L334.041 66.1499L361.086 75.5411L388.473 84.1846L416.2 94.6644L444.295 104.41L472.77 105.354L501.796 88.6178L507.423 86.152L521.916 79.8038L527.831 77.2067L533.76 76.1575" stroke="white" stroke-opacity="0.2" stroke-width="1.20884" stroke-linecap="round" stroke-linejoin="round"/>
<path d="M207.963 99.8189L224.804 102.009L253.043 105.905L280.364 105.498L286.306 104.318L307.986 100.055L335.255 99.1892L362.077 95.3725L389.831 105.131L417.939 115.007L446.401 125.015L472.764 105.354L498.8 88.3423L521.215 79.738L527.826 77.2065" stroke="white" stroke-opacity="0.2" stroke-width="1.20884" stroke-linecap="round" stroke-linejoin="round"/>
<path d="M227.654 67.5138L254.464 57.5454L280.867 66.8317L307.309 56.8765L334.039 66.1497L360.114 56.1946L385.861 46.3706L412.867 55.5256L440.214 64.7724L467.902 73.4684L495.971 77.6394L521.22 79.738" stroke="white" stroke-opacity="0.2" stroke-width="1.20884" stroke-linecap="round" stroke-linejoin="round"/>
<path d="M254.467 57.5446L280.922 47.7075L307.312 56.8757L333.413 47.0386L359.173 37.3459L385.864 46.3698L411.27 36.677L438.263 45.7009L463.315 36.0212L488.052 26.4595L515.32 35.3654L542.917 44.3761" stroke="white" stroke-opacity="0.2" stroke-width="1.20884" stroke-linecap="round" stroke-linejoin="round"/>
<path d="M280.92 47.7082L307.034 38.0024L333.411 47.0393L360.115 56.1945L387.147 65.4675L414.521 74.8456L442.235 82.4136L470.304 87.6993L498.805 88.3421" stroke="white" stroke-opacity="0.2" stroke-width="1.20884" stroke-linecap="round" stroke-linejoin="round"/>
<path d="M652.525 44.4158L680.161 44.2061" stroke="white" stroke-opacity="0.2" stroke-width="1.20884" stroke-linecap="round" stroke-linejoin="round"/>
<path d="M307.031 38.0027L332.804 28.4147L359.168 37.3469L384.6 27.7589L411.265 36.6779L436.343 27.1162L463.31 36.0221L490.605 44.9672L515.315 35.3663" stroke="white" stroke-opacity="0.2" stroke-width="1.20884" stroke-linecap="round" stroke-linejoin="round"/>
<path d="M332.805 28.4148L358.25 18.9582L384.6 27.759L409.705 18.3155L434.481 8.97681L461.107 17.6728L488.047 26.4605" stroke="white" stroke-opacity="0.2" stroke-width="1.20884" stroke-linecap="round" stroke-linejoin="round"/>
<path d="M172.973 87.8564L199.323 94.2571L225.988 99.5692L240.665 103.006" stroke="white" stroke-opacity="0.2" stroke-width="1.20884" stroke-linecap="round" stroke-linejoin="round"/>
<path d="M-30.5664 163.55L-4.34712 170.344L21.8851 169.229L48.7469 173.138L76.4351 188.365L104.53 205.18L132.861 218.467L163.356 210.519L193.142 193.546L222.313 166.632L251.719 168.993L280.391 157.372L308.604 140.741L336.659 145.856L364.137 136.649L391.222 125.762L417.94 115.007L444.29 104.409L470.299 87.6992L495.967 77.6393L521.255 70.6745L546.215 62.4507L553.508 64.5363" stroke="white" stroke-opacity="0.2" stroke-width="1.20884" stroke-linecap="round" stroke-linejoin="round"/>
<path d="M358.248 18.959L383.365 9.60718L409.703 18.3163L436.342 27.1172L461.105 17.6736" stroke="white" stroke-opacity="0.2" stroke-width="1.20884" stroke-linecap="round" stroke-linejoin="round"/>
<path d="M1001.12 193.965L977.253 205.822L953.053 217.863L928.5 230.074L903.566 242.469L878.265 255.034L852.597 267.796L819.164 246.233L786.715 209.403L757.256 165.228L754.921 161.726L753.859 159.903L723.521 107.858L722.76 107.15L691.597 78.3337L659.606 63.9189L632.771 77.1138L605.62 87.1608L578.076 95.5027L549.824 126.142L521.166 166.776L505.151 181.085L495.642 186.174L479.142 193.021L466.012 198.477L450.797 206.478L433.655 215.489L415.777 221.024L403.606 224.775L400.143 226.926L399.96 227.031L399.684 227.202L394.529 230.389L373.124 243.61L369.189 249.945L342.485 292.979L311.491 333.088L280.026 363.767L247.917 383.231L216.294 369.682L185.117 356.343L154.399 343.188L124.14 330.229L94.3013 317.454L64.8817 304.862L35.8951 292.454L7.3019 280.204L-20.8846 268.137L-48.6776 256.241L-76.0904 244.502L-103.136 232.92L-129.801 221.509L-156.125 210.243" stroke="white" stroke-opacity="0.2" stroke-width="1.20884" stroke-linecap="round" stroke-linejoin="round"/>
<path d="M29.6113 141.174L55.7781 145.502L65.0643 141.607L85.2237 133.16L114.289 121.421L132.258 114.81L142.987 110.876L165.822 102.914L171.305 100.999L191.805 96.0674L199.321 94.2574L226.891 85.9156L254.068 76.813L280.825 86.4534L307.896 96.0937L334.666 85.745L362.079 95.3724L388.469 84.1843L414.517 74.8456L440.212 64.7724L465.578 54.8435L490.604 44.967L518.24 53.6499L546.216 62.4508L570.848 53.4925" stroke="white" stroke-opacity="0.2" stroke-width="1.20884" stroke-linecap="round" stroke-linejoin="round"/>
<path d="M383.369 9.60569L408.172 0.38501L434.483 8.97614" stroke="white" stroke-opacity="0.2" stroke-width="1.20884" stroke-linecap="round" stroke-linejoin="round"/>
<path d="M145.076 98.2314L171.308 100.999L183.939 100.514" stroke="white" stroke-opacity="0.2" stroke-width="1.20884" stroke-linecap="round" stroke-linejoin="round"/>
<path d="M59.0684 130.209L85.2218 133.16L111.402 125.854" stroke="white" stroke-opacity="0.2" stroke-width="1.20884" stroke-linecap="round" stroke-linejoin="round"/>
<path d="M116.799 108.75L142.992 110.875L158.692 106.966" stroke="white" stroke-opacity="0.2" stroke-width="1.20884" stroke-linecap="round" stroke-linejoin="round"/>
<path d="M88.1367 119.401L114.29 121.421L131.092 117.998" stroke="white" stroke-opacity="0.2" stroke-width="1.20884" stroke-linecap="round" stroke-linejoin="round"/>
<path d="M303.926 273.11L280.369 263.758L250.556 251.914L221.163 240.228L190.838 252.78L161.826 241.08L132.865 218.468" stroke="white" stroke-opacity="0.2" stroke-width="1.20884" stroke-linecap="round" stroke-linejoin="round"/>
<path d="M361.63 247.021L339.634 238.535L309.86 227.032L280.428 239.387L250.549 251.913L220.238 264.623L190.831 252.779L160.048 265.502L128.805 278.421L99.7924 266.38L68.0908 279.313L35.8906 292.455" stroke="white" stroke-opacity="0.2" stroke-width="1.20884" stroke-linecap="round" stroke-linejoin="round"/>
<path d="M793.166 134.668L814.637 143.744L846.299 156.598L870.184 151.22" stroke="white" stroke-opacity="0.2" stroke-width="1.20884" stroke-linecap="round" stroke-linejoin="round"/>
<path d="M794.961 135.861L814.635 143.744L838.507 140.885" stroke="white" stroke-opacity="0.2" stroke-width="1.20884" stroke-linecap="round" stroke-linejoin="round"/>
<path d="M463.768 154.119L477.894 139.088L504.834 94.5329L524.626 81.9675" stroke="white" stroke-opacity="0.2" stroke-width="1.20884" stroke-linecap="round" stroke-linejoin="round"/>
<path d="M789.928 130.563L807.241 130.668" stroke="white" stroke-opacity="0.2" stroke-width="1.20884" stroke-linecap="round" stroke-linejoin="round"/>
<path d="M479.143 193.022L489.281 180.929L521.167 166.777L553.734 148.309L582.484 110.889L610.605 92.054" stroke="white" stroke-opacity="0.2" stroke-width="1.20884" stroke-linecap="round" stroke-linejoin="round"/>
<path d="M265.033 104.527L280.707 102.73L307.897 96.0935L335.257 99.1889L363.103 115.741L391.224 125.762L419.712 135.901L448.58 146.184" stroke="white" stroke-opacity="0.2" stroke-width="1.20884" stroke-linecap="round" stroke-linejoin="round"/>
<path d="M452.67 204.092L457.995 197.376L479.728 164.94L486.378 155.011L487.008 154.382L510.617 106.613L513.253 102.573L531.222 80.0395L534.095 76.1047L534.908 75.4226L537.99 73.7439L553.271 64.6806L553.507 64.5364L561.416 59.9063L572.328 53.9778L592.094 43.2358L623.127 37.0842L652.52 44.4161L654.357 44.8753L680.156 44.2064L696.827 52.4039L711.517 59.6309L724.095 73.9144L730.758 82.5973L742.536 96.6709L748.898 104.344L773.792 134.458L778.422 139.836L805.336 171.066L830.073 170.934L862.326 194.124L886.879 186.188L910.921 180.916L943.895 192.93L977.249 205.823" stroke="white" stroke-opacity="0.2" stroke-width="1.20884" stroke-linecap="round" stroke-linejoin="round"/>
<path d="M774.713 120.043L776.379 120.594L807.241 130.667L838.51 140.885L870.185 151.221L902.28 161.7" stroke="white" stroke-opacity="0.2" stroke-width="1.20884" stroke-linecap="round" stroke-linejoin="round"/>
<path d="M397.432 228.067L398.756 227.005L399.242 227.11" stroke="white" stroke-opacity="0.2" stroke-width="1.20884" stroke-linecap="round" stroke-linejoin="round"/>
<path d="M399.51 226.954L398.749 227.006L368.622 226.193L338.874 214.874L309.507 203.686L280.481 215.7L251.035 227.872L221.157 240.227L192.157 228.711L163.354 210.519L134.367 176.417L106.286 160.848L78.7944 152.323L52.0507 152.703L25.9233 157.674L-0.269531 152.284" stroke="white" stroke-opacity="0.2" stroke-width="1.20884" stroke-linecap="round" stroke-linejoin="round"/>
<path d="M486.762 154.866L517.781 142.812L549.824 126.142L582.483 110.887L615.379 116.396L643.224 109.051L670.742 97.7976L697.38 102.598L723.521 107.858L748.822 123.649L773.795 134.457L798.23 146.275L822.364 154.118L832.962 159.588L854.394 170.671L886.882 186.187L919.646 204.025L953.053 217.863" stroke="white" stroke-opacity="0.2" stroke-width="1.20884" stroke-linecap="round" stroke-linejoin="round"/>
<path d="M725.131 73.7698L737.526 86.6499L742.431 91.7521L774.71 120.044" stroke="white" stroke-opacity="0.2" stroke-width="1.20884" stroke-linecap="round" stroke-linejoin="round"/>
<path d="M337.378 168.285L319.829 151.483L308.602 140.741L280.192 119.506L252.294 109.59L224.803 102.009" stroke="white" stroke-opacity="0.2" stroke-width="1.20884" stroke-linecap="round" stroke-linejoin="round"/>
<path d="M167.137 103.596L177.616 101.668L183.938 100.513L196.084 98.2706L207.967 99.8183L225.989 99.569L253.638 95.0833L280.827 86.4529L307.61 76.2223L334.669 85.7446L361.085 75.5404L387.147 65.4671L412.867 55.5251L438.26 45.7012L465.581 54.8431L493.243 62.8308L521.259 70.6742L537.825 73.7172" stroke="white" stroke-opacity="0.2" stroke-width="1.20884" stroke-linecap="round" stroke-linejoin="round"/>
<path d="M457.694 284.231L281.797 206.979L502.985 86.2223L649.775 90.9574L457.694 284.231Z" fill="url(#paint0_linear_482_2180)" fill-opacity="0.4" stroke="white" stroke-width="2.41769"/>
<path d="M264.551 389.632C269.386 381.17 325.96 353.851 349.17 321.937C366.229 298.481 376.183 274.189 389.353 255.451C398.582 242.321 409.389 231.917 425.327 226.438C464.01 213.141 526.87 201.053 537.749 179.294C548.629 157.534 523.243 123.687 530.496 94.6745C531.108 92.2283 532.352 89.7696 534.123 87.3173C549.159 66.5019 627.204 49.9473 629.622 37.8589" stroke="url(#paint1_linear_482_2180)" stroke-width="2.41769"/>
<g filter="url(#filter0_dd_482_2180)">
<path d="M389.355 255.451C398.584 242.32 409.392 231.917 425.329 226.438C464.012 213.141 526.872 201.053 537.752 179.293C548.631 157.534 523.246 123.687 530.499 94.6744C531.11 92.2282 532.354 89.7694 534.125 87.3171" stroke="white" stroke-width="2.41769"/>
</g>
<path d="M530.496 94.6744C531.108 92.2282 532.351 89.7694 534.123 87.3171" stroke="white" stroke-width="2.41769"/>
</g>
<defs>
<filter id="filter0_dd_482_2180" x="379.167" y="77.4094" width="173.746" height="189.936" filterUnits="userSpaceOnUse" color-interpolation-filters="sRGB">
<feFlood flood-opacity="0" result="BackgroundImageFix"/>
<feColorMatrix in="SourceAlpha" type="matrix" values="0 0 0 0 0 0 0 0 0 0 0 0 0 0 0 0 0 0 127 0" result="hardAlpha"/>
<feOffset dx="2.41769" dy="2.41769"/>
<feGaussianBlur stdDeviation="2.05503"/>
<feComposite in2="hardAlpha" operator="out"/>
<feColorMatrix type="matrix" values="0 0 0 0 0.368627 0 0 0 0 0.713726 0 0 0 0 0.207843 0 0 0 1 0"/>
<feBlend mode="normal" in2="BackgroundImageFix" result="effect1_dropShadow_482_2180"/>
<feColorMatrix in="SourceAlpha" type="matrix" values="0 0 0 0 0 0 0 0 0 0 0 0 0 0 0 0 0 0 127 0" result="hardAlpha"/>
<feOffset dx="1" dy="1"/>
<feGaussianBlur stdDeviation="5.1"/>
<feComposite in2="hardAlpha" operator="out"/>
<feColorMatrix type="matrix" values="0 0 0 0 0 0 0 0 0 0.729412 0 0 0 0 0.94902 0 0 0 1 0"/>
<feBlend mode="normal" in2="effect1_dropShadow_482_2180" result="effect2_dropShadow_482_2180"/>
<feBlend mode="normal" in="SourceGraphic" in2="effect2_dropShadow_482_2180" result="shape"/>
</filter>
<linearGradient id="paint0_linear_482_2180" x1="606" y1="85" x2="380" y2="252" gradientUnits="userSpaceOnUse">
<stop stop-color="#5EB635"/>
<stop offset="1" stop-color="#00BAF2"/>
</linearGradient>
<linearGradient id="paint1_linear_482_2180" x1="640.501" y1="36.6501" x2="264.551" y2="389.632" gradientUnits="userSpaceOnUse">
<stop stop-color="white" stop-opacity="0"/>
<stop offset="0.134073" stop-color="white"/>
<stop offset="0.624453" stop-color="white"/>
<stop offset="1" stop-color="white" stop-opacity="0"/>
</linearGradient>
<clipPath id="clip0_482_2180">
<rect width="845" height="395.794" fill="white" transform="translate(0 0.602539)"/>
</clipPath>
</defs>
</svg>
