<svg width="243" height="178" viewBox="0 0 243 178" fill="none" xmlns="http://www.w3.org/2000/svg">
<path d="M82.5869 104.171H95.5081V108.343H89.3614V137.653H82.5869V104.171Z" fill="#0079C2"/>
<path d="M103.169 125.084L104.33 108.343H104.718L105.879 125.084H103.169ZM95.6664 137.653H102.299L102.927 128.761H106.121L106.752 137.653H113.382L109.849 104.171H99.1995L95.6664 137.653Z" fill="#0079C2"/>
<path d="M123.084 125.935V132.247C123.084 133.098 123.75 133.345 124.139 133.345C124.778 133.345 125.222 132.823 125.222 132.247V124.453C125.222 123.41 125.028 122.257 122.5 122.257H119.751V118.58H122.611C124.528 118.58 125.222 118.14 125.222 116.082V109.441C125.222 108.864 124.778 108.343 124.139 108.343C123.75 108.343 123.084 108.562 123.084 109.441V114.902H116.306V110.154C116.306 107.821 116.584 104.171 121.334 104.171H126.944C131.694 104.171 132 107.821 132 110.154V115.506C132 119.156 129.416 120.144 127.389 120.062V120.391C131.944 120.281 132 123.739 132 124.919V131.67C132 134.031 131.694 137.653 126.944 137.653H121.334C116.584 137.653 116.306 134.031 116.306 131.67V125.935H123.084Z" fill="#0079C2"/>
<path d="M136.444 104.171H152.137V137.653H145.36V108.343H143.221V137.653H136.444V104.171Z" fill="#0079C2"/>
<path d="M163.358 122.586V108.343H164.247C164.969 108.343 165.497 108.947 165.497 110.017V120.912C165.497 121.983 164.969 122.586 164.247 122.586H163.358ZM156.581 137.653H163.358V126.264H167.247C171.969 126.264 172.274 122.641 172.274 120.281V110.154C172.274 107.821 171.969 104.171 167.247 104.171H156.581V137.653Z" fill="#0079C2"/>
<path d="M185.634 132.247C185.634 132.823 185.19 133.345 184.551 133.345C184.162 133.345 183.495 133.098 183.495 132.247V109.441C183.495 108.562 184.162 108.343 184.551 108.343C185.19 108.343 185.634 108.864 185.634 109.441V132.247ZM176.718 131.67C176.718 134.031 177.024 137.653 181.746 137.653H187.384C192.106 137.653 192.411 134.031 192.411 131.67V110.154C192.411 107.821 192.106 104.171 187.384 104.171H181.746C177.024 104.171 176.718 107.821 176.718 110.154V131.67Z" fill="#0079C2"/>
<path d="M214.465 104.171H223.298V137.653H216.52V116.658H216.27L212.771 137.653H207.355L203.883 116.658H203.633V137.653H196.855V104.171H205.66L210.077 127.718L214.465 104.171Z" fill="#0079C2"/>
<path d="M73.8043 58.3944C71.7295 49.4202 66.5299 42.12 65.8133 40.9399C64.68 42.614 60.5331 49.0634 58.425 56.1989C56.1224 64.1852 55.7835 71.2658 56.5779 78.2091C57.3667 85.18 60.347 92.3429 60.347 92.3429C61.9303 96.0753 64.3023 100.11 65.8466 102.086C68.1103 99.1765 73.3127 90.5042 74.9348 79.1971C75.8375 72.885 75.8763 67.3687 73.8043 58.3944ZM65.8133 99.8352C64.7939 97.9415 63.2107 94.3463 63.0607 88.7477C63.0218 83.3687 65.2078 78.7306 65.8466 77.77C66.416 78.7306 68.2992 82.7649 68.5242 88.2812C68.6769 93.6602 66.866 97.9141 65.8133 99.8352ZM73.2016 73.626C73.1238 77.0565 72.7099 80.6791 72.1822 82.8472C72.3711 79.1148 71.9183 73.873 71.0517 69.7563C70.1851 65.6671 67.7325 58.8061 65.7744 55.65C63.9662 58.6689 61.7386 64.5968 60.572 69.7289C59.3999 74.8609 59.3666 81.0908 59.3666 82.957C59.0555 81.3927 58.2778 75.7666 58.4972 70.1405C58.6805 65.5025 59.7804 60.6998 60.3832 58.5042C62.683 51.1766 65.2855 46.4837 65.7744 45.7427C66.2632 46.4837 69.5408 52.2744 71.2406 58.3396C72.9321 64.4047 73.2738 70.2229 73.2016 73.626Z" fill="#0079C2"/>
<path d="M53.5587 104.171V114.628C53.5726 114.628 53.5837 114.6 53.5976 114.6C57.314 110.923 63.3412 110.923 67.0604 114.6C70.7767 118.25 70.7767 124.206 67.0604 127.883C67.0437 127.911 67.0271 127.911 67.0104 127.938C66.991 127.938 66.9715 127.965 66.9548 127.993C63.2468 131.616 58.4028 133.427 53.5587 133.427C48.6924 133.427 43.8262 131.616 40.1154 127.938C33.5714 121.489 32.7965 111.471 37.785 104.171C38.4572 103.183 39.2321 102.25 40.1154 101.372C43.8262 97.6945 48.6924 95.8832 53.5587 95.8832V70.7443C34.8602 70.7443 19.7031 85.7014 19.7031 104.171C19.7031 122.641 34.8602 137.626 53.5587 137.626C63.3079 137.626 72.0905 133.537 78.2678 127.032V104.171H53.5587Z" fill="#0079C2"/>
</svg>
