<svg width="400" height="75" viewBox="0 0 400 75" fill="none" xmlns="http://www.w3.org/2000/svg">
<path d="M250.622 36.1289C235.002 36.1289 228.818 45.858 228.818 55.3867C228.818 64.9154 235.002 74.6445 250.622 74.6445C266.242 74.6445 272.425 64.9154 272.425 55.3867C272.415 45.8686 266.242 36.1289 250.622 36.1289ZM250.622 68.2078C240.457 68.2078 236.95 60.9689 236.95 55.3973C236.95 49.8258 240.457 42.5869 250.622 42.5869C260.787 42.5869 264.293 49.8258 264.293 55.3973C264.293 60.9689 260.787 68.2078 250.622 68.2078Z" fill="white"/>
<path d="M142.08 36.9316H134.264V73.8643H142.08V36.9316Z" fill="white"/>
<path d="M105.995 36.9316H98.169V73.8643H125.923V67.8497H105.995V36.9316Z" fill="white"/>
<path d="M162.743 36.9316H154.917V73.8643H182.672V67.8497H162.743V36.9316Z" fill="white"/>
<path d="M190.997 73.8643H222.09V67.8497H198.822V58.4054H220.267V52.3906H198.822V42.9463H222.09V36.9316H190.997V73.8643Z" fill="white"/>
<path d="M390.247 36.9316L378.807 50.1325L367.368 36.9316H357.603L374.9 56.0312V73.8643H382.715V56.0312L400 36.9316H390.247Z" fill="white"/>
<path d="M356.387 36.9316H346.623L330.16 54.4693V36.9316H322.333V73.8643H330.16V55.3664L348.255 73.8643H358.22L339.05 54.6593L356.387 36.9316Z" fill="white"/>
<path d="M279.648 18.4629H242.783C257.857 20.0667 268.873 20.7738 273.328 23.1059C277.763 25.4274 278.395 30.0387 279.648 36.9292V18.4629Z" fill="white"/>
<path d="M62.8078 36.9316L45.4915 73.8643H54.3181L57.9626 65.4965H78.6178L82.2833 73.8643H91.11L73.7936 36.9316H62.8078ZM60.5958 59.4923L67.811 42.9463H68.78L75.9951 59.4923H60.5958Z" fill="white"/>
<path d="M284.285 13.8234C281.62 11.1537 280.903 6.8906 279.65 0V18.4664H298.083C291.205 17.2106 286.95 16.4931 284.285 13.8234Z" fill="white"/>
<path d="M32.21 67.6832C30.0297 68.0736 27.6913 68.327 25.2372 68.327C13.4928 68.327 8.27895 61.5735 8.27895 55.4004C8.27895 49.544 12.9661 42.474 25.2372 42.474C30.314 42.474 34.917 43.5714 38.5613 44.6583V38.0737C34.917 37.0395 30.314 36.1426 25.2372 36.1426C6.74114 36.1426 0 46.1672 0 55.4004C0 64.6336 6.74113 74.6582 25.2265 74.6582C31.0197 74.6582 36.1808 73.4447 40.0255 72.2839V55.4004H32.21V67.6832Z" fill="white"/>
<path d="M301.295 52.9206C292.658 50.7574 288.182 50.1771 288.182 46.9059C288.182 44.5844 290.973 42.474 297.977 42.474C302.938 42.474 307.552 43.7402 310.902 44.8272V38.2847C307.857 37.3139 302.917 36.1426 297.977 36.1426C283.337 36.1426 279.65 42.896 279.65 46.9059C279.65 52.6568 283.337 55.6114 292.078 57.6691C300.927 59.7268 305.193 60.6237 305.193 63.7895C305.193 65.7944 303.297 68.1159 294.923 68.1159C289.603 68.1159 282.493 66.3747 279.65 65.3194V72.0729C282.493 73.1282 289.603 74.6582 294.923 74.6582C307.983 74.6582 313.725 70.0679 313.725 63.7367C313.725 59.8323 312.145 55.6114 301.295 52.9206Z" fill="white"/>
</svg>
