<svg width="165" height="144" viewBox="0 0 165 144" fill="none" xmlns="http://www.w3.org/2000/svg">
<path d="M150.262 121.943H164.968V115.599H150.262V121.943Z" stroke="url(#paint0_linear_406_1476)"/>
<path d="M150.262 109.922H164.968V103.578H150.262V109.922Z" stroke="url(#paint1_linear_406_1476)"/>
<path d="M150.262 133.298C150.262 133.52 150.23 133.742 150.199 133.964H164.968V127.621H150.262V133.298Z" stroke="url(#paint2_linear_406_1476)"/>
<path d="M133.306 49.624V44.5807C133.306 37.7612 127.759 32.2104 120.945 32.2104H44.7832C37.969 32.2104 32.4224 37.7612 32.4224 44.5807V120.769C32.4224 127.589 37.969 133.14 44.7832 133.14H99.2342C100.027 131.966 100.882 130.856 101.865 129.809V126.796H44.7832C41.4553 126.796 38.7613 124.1 38.7613 120.769V44.5807C38.7613 41.2503 41.4553 38.5542 44.7832 38.5542H120.945C124.273 38.5542 126.967 41.2503 126.967 44.5807V45.5957C129.344 46.5156 131.499 47.8795 133.306 49.624Z" stroke="url(#paint3_linear_406_1476)"/>
<path d="M150.262 97.8684H164.968V91.5246H150.262V97.8684Z" stroke="url(#paint4_linear_406_1476)"/>
<path d="M165 37.6978V31.354H147.251C146.427 24.5027 141.007 19.0788 134.161 18.2541V0.491577H127.823V18.0955H122.149V0.491577H115.81V18.0955H110.137V0.491577H103.798V18.0955H98.1249V0.491577H91.786V18.0955H86.1127V0.491577H79.7738V18.0955H74.1005V0.491577H67.7617V18.0955H62.0884V0.491577H55.7495V18.0955H50.0762V0.491577H43.7373V18.0955H38.064V0.491577H31.7252V18.2541C24.8792 19.1105 19.4594 24.5027 18.6354 31.354H0.759766V37.6978H18.3184V43.3754H0.759766V49.7192H18.3184V55.3969H0.759766V61.7406H18.3184V67.4183H0.759766V73.7621H18.3184V79.4397H0.759766V85.7835H18.3184V91.4612H0.759766V97.8049H18.3184V103.483H0.759766V109.826H18.3184V115.504H0.759766V121.848H18.3184V127.525H0.759766V133.869H18.5086C19.3327 140.72 24.7524 146.144 31.5984 146.969V164.732H37.9373V147.128H43.6106V164.732H49.9494V147.128H55.6227V164.732H61.9616V147.128H67.6349V164.732H73.9738V147.128H79.6471V164.732H85.9859V147.128H91.6592V164.732H97.9981V159.403C96.0014 155.755 94.8604 151.6 94.8604 147.159C94.8604 146.081 94.9554 145.003 95.0822 143.956H33.4367C26.8442 143.956 21.5196 138.627 21.5196 132.03V33.1937C21.5196 26.5962 26.8442 21.2674 33.4367 21.2674H132.323C138.916 21.2674 144.24 26.5962 144.24 33.1937V56.3167C146.966 56.9828 149.121 59.108 149.913 61.8041H164.968V55.4603H147.41V49.7826H164.968V43.4389H147.41V37.7612H164.968L165 37.6978Z" stroke="url(#paint5_linear_406_1476)"/>
<path d="M150.262 73.7938H164.968V67.45H150.262V73.7938Z" stroke="url(#paint6_linear_406_1476)"/>
<path d="M150.262 85.8469H164.968V79.5032H150.262V85.8469Z" stroke="url(#paint7_linear_406_1476)"/>
<path d="M142.339 65.5786C143.226 65.5786 143.923 64.8808 143.923 63.9927C143.923 63.1045 143.226 62.4067 142.339 62.4067H132.513C132.26 55.9044 126.935 50.7025 120.374 50.7025C113.814 50.7025 108.204 56.1581 108.204 62.8825V132.537C103.766 136.185 101.263 141.513 101.263 147.286C101.263 157.849 109.852 166.444 120.406 166.444C130.96 166.444 139.549 157.849 139.549 147.286C139.549 142.655 137.901 138.31 134.954 134.884H142.37C143.258 134.884 143.955 134.186 143.955 133.298C143.955 132.41 143.258 131.712 142.37 131.712H132.608V124.988H142.37C143.258 124.988 143.955 124.29 143.955 123.402C143.955 122.514 143.258 121.816 142.37 121.816H132.608V115.092H142.37C143.258 115.092 143.955 114.394 143.955 113.506C143.955 112.618 143.258 111.92 142.37 111.92H132.608V105.195H142.37C143.258 105.195 143.955 104.498 143.955 103.609C143.955 102.721 143.258 102.024 142.37 102.024H132.608V95.2991H142.37C143.258 95.2991 143.955 94.6013 143.955 93.7132C143.955 92.8251 143.258 92.1272 142.37 92.1272H132.608V85.4029H142.37C143.258 85.4029 143.955 84.705 143.955 83.8169C143.955 82.9288 143.258 82.231 142.37 82.231H132.608V75.5066H142.37C143.258 75.5066 143.955 74.8088 143.955 73.9206C143.955 73.0325 143.258 72.3347 142.37 72.3347H132.608V65.6103H142.37L142.339 65.5786ZM136.348 147.286C136.348 156.104 129.185 163.273 120.374 163.273C111.563 163.273 104.4 156.104 104.4 147.286C104.4 142.275 106.714 137.644 110.739 134.567C111.12 134.282 111.373 133.806 111.373 133.298V62.8825C111.373 57.9026 115.43 53.8743 120.374 53.8743C125.319 53.8743 129.376 57.9344 129.376 62.8825V133.298C129.376 133.552 129.439 133.774 129.534 133.964C129.534 134.028 129.597 134.06 129.629 134.123C129.724 134.25 129.819 134.377 129.946 134.504C129.946 134.504 129.978 134.567 130.009 134.567C134.035 137.612 136.348 142.243 136.348 147.286Z" stroke="url(#paint8_linear_406_1476)"/>
<path d="M127.442 138.024L125.128 136.248V94.3476H115.715V136.248L113.402 138.024C110.454 140.245 108.774 143.639 108.774 147.286C108.774 153.725 114.004 158.959 120.438 158.959C126.872 158.959 132.101 153.725 132.101 147.286C132.101 143.639 130.421 140.245 127.474 138.024H127.442Z" stroke="url(#paint9_linear_406_1476)"/>
<defs>
<linearGradient id="paint0_linear_406_1476" x1="-0.335169" y1="1.39677" x2="178.157" y2="148.213" gradientUnits="userSpaceOnUse">
<stop stop-color="#00BAF2"/>
<stop offset="1" stop-color="#5EB635"/>
</linearGradient>
<linearGradient id="paint1_linear_406_1476" x1="-0.335169" y1="1.39677" x2="178.157" y2="148.213" gradientUnits="userSpaceOnUse">
<stop stop-color="#00BAF2"/>
<stop offset="1" stop-color="#5EB635"/>
</linearGradient>
<linearGradient id="paint2_linear_406_1476" x1="-0.335169" y1="1.39677" x2="178.157" y2="148.213" gradientUnits="userSpaceOnUse">
<stop stop-color="#00BAF2"/>
<stop offset="1" stop-color="#5EB635"/>
</linearGradient>
<linearGradient id="paint3_linear_406_1476" x1="-0.335169" y1="1.39677" x2="178.157" y2="148.213" gradientUnits="userSpaceOnUse">
<stop stop-color="#00BAF2"/>
<stop offset="1" stop-color="#5EB635"/>
</linearGradient>
<linearGradient id="paint4_linear_406_1476" x1="-0.335169" y1="1.39677" x2="178.157" y2="148.213" gradientUnits="userSpaceOnUse">
<stop stop-color="#00BAF2"/>
<stop offset="1" stop-color="#5EB635"/>
</linearGradient>
<linearGradient id="paint5_linear_406_1476" x1="-0.335169" y1="1.39677" x2="178.157" y2="148.213" gradientUnits="userSpaceOnUse">
<stop stop-color="#00BAF2"/>
<stop offset="1" stop-color="#5EB635"/>
</linearGradient>
<linearGradient id="paint6_linear_406_1476" x1="-0.335169" y1="1.39677" x2="178.157" y2="148.213" gradientUnits="userSpaceOnUse">
<stop stop-color="#00BAF2"/>
<stop offset="1" stop-color="#5EB635"/>
</linearGradient>
<linearGradient id="paint7_linear_406_1476" x1="-0.335169" y1="1.39677" x2="178.157" y2="148.213" gradientUnits="userSpaceOnUse">
<stop stop-color="#00BAF2"/>
<stop offset="1" stop-color="#5EB635"/>
</linearGradient>
<linearGradient id="paint8_linear_406_1476" x1="-0.335169" y1="1.39677" x2="178.157" y2="148.213" gradientUnits="userSpaceOnUse">
<stop stop-color="#00BAF2"/>
<stop offset="1" stop-color="#5EB635"/>
</linearGradient>
<linearGradient id="paint9_linear_406_1476" x1="-0.335169" y1="1.39677" x2="178.157" y2="148.213" gradientUnits="userSpaceOnUse">
<stop stop-color="#00BAF2"/>
<stop offset="1" stop-color="#5EB635"/>
</linearGradient>
</defs>
</svg>
