<svg width="242" height="178" viewBox="0 0 242 178" fill="none" xmlns="http://www.w3.org/2000/svg">
<path fill-rule="evenodd" clip-rule="evenodd" d="M115.905 115.66H108.898V80.6968H115.905V115.66Z" fill="#FFD100"/>
<path fill-rule="evenodd" clip-rule="evenodd" d="M124.249 115.66H117.242V73.4829H124.249V115.66Z" fill="#FFD100"/>
<path fill-rule="evenodd" clip-rule="evenodd" d="M125.584 115.66H132.591V80.6968H125.584V115.66Z" fill="#FFD100"/>
<path fill-rule="evenodd" clip-rule="evenodd" d="M99.2219 82.1403L92.2148 75.9247V57.9434H99.2219V82.1403Z" fill="white"/>
<path fill-rule="evenodd" clip-rule="evenodd" d="M107.564 89.91L100.557 83.0277V50.0625H107.564V89.91Z" fill="white"/>
<path fill-rule="evenodd" clip-rule="evenodd" d="M115.905 79.6987H108.898V42.2939H115.905V79.6987Z" fill="white"/>
<path fill-rule="evenodd" clip-rule="evenodd" d="M124.249 72.0397H117.242V34.4131H124.249V72.0397Z" fill="white"/>
<path fill-rule="evenodd" clip-rule="evenodd" d="M142.156 82.1403L149.163 75.9247V57.9434H142.156V82.1403Z" fill="white"/>
<path fill-rule="evenodd" clip-rule="evenodd" d="M133.814 89.91L140.933 83.0277V50.0625H133.814V89.91Z" fill="white"/>
<path fill-rule="evenodd" clip-rule="evenodd" d="M125.584 79.6987H132.591V42.2939H125.584V79.6987Z" fill="white"/>
<path fill-rule="evenodd" clip-rule="evenodd" d="M67.2014 141.825C66.312 142.712 64.6434 143.157 62.1965 143.157H54.299C51.9633 143.157 50.2947 142.824 49.4053 141.936C48.4048 141.048 47.959 139.716 47.959 138.051V130.392C47.959 128.616 48.4037 127.396 49.4053 126.507C50.2947 125.62 51.9633 125.175 54.299 125.175H62.1965C64.6434 125.175 66.312 125.619 67.2014 126.507C68.0907 127.396 68.5365 128.727 68.5365 130.392V138.051C68.5365 139.716 68.0919 140.936 67.2014 141.825ZM63.0859 132.168C63.0859 131.17 62.8635 130.503 62.53 129.948C62.0853 129.505 61.1949 129.283 59.7497 129.283H56.747C55.4118 129.283 54.5225 129.616 54.0778 130.059C53.6331 130.503 53.4108 131.281 53.4108 132.168V136.275C53.4108 137.162 53.6331 137.829 54.0778 138.384C54.5225 138.827 55.413 139.16 56.747 139.16H59.7497C61.196 139.16 62.0853 138.827 62.4189 138.384C62.8635 137.94 63.0859 137.273 63.0859 136.275V132.168Z" fill="white"/>
<path fill-rule="evenodd" clip-rule="evenodd" d="M90.8947 141.825C90.0054 142.712 88.3367 143.157 85.8899 143.157H77.9924C75.6567 143.157 73.988 142.824 73.0987 141.936C72.0982 141.048 71.6523 139.716 71.6523 138.051V130.392C71.6523 128.616 72.097 127.396 73.0987 126.507C73.988 125.62 75.6567 125.175 77.9924 125.175H85.8899C88.3367 125.175 90.0054 125.619 90.8947 126.507C91.7841 127.396 92.1187 128.727 92.1187 130.392V132.168H86.7792C86.7792 131.17 86.5569 130.503 86.1122 129.948C85.7787 129.505 84.8882 129.283 83.443 129.283H80.4404C79.1052 129.283 78.2158 129.616 77.7712 130.059C77.3265 130.503 77.1042 131.281 77.1042 132.168V136.275C77.1042 137.162 77.3265 137.829 77.7712 138.384C78.2158 138.827 79.1063 139.16 80.4404 139.16H83.443C84.8894 139.16 85.7787 138.827 86.1122 138.384C86.5569 137.94 86.7792 137.273 86.7792 136.275H92.1187V138.051C92.1187 139.716 91.7852 140.936 90.8947 141.825Z" fill="white"/>
<path fill-rule="evenodd" clip-rule="evenodd" d="M100.682 143.158H95.3438V138.052V130.394V125.176H100.682V132.059H110.359V125.176H115.809V130.394V138.052V143.158H110.359V136.165H100.682V143.158Z" fill="white"/>
<path fill-rule="evenodd" clip-rule="evenodd" d="M125.93 136.165H124.373C124.373 137.163 124.595 137.83 125.04 138.385C125.484 138.829 126.375 139.161 127.709 139.161H139.5V143.157H125.373C122.926 143.157 121.258 142.824 120.368 141.936C119.479 141.047 119.033 139.716 119.033 138.051V130.392C119.033 128.616 119.478 127.396 120.368 126.507C121.259 125.619 122.926 125.175 125.373 125.175H139.5V129.282H127.709C126.374 129.282 125.484 129.614 125.04 130.058C124.595 130.502 124.373 131.28 124.373 132.056H139.5V136.163H125.929L125.93 136.165Z" fill="white"/>
<path fill-rule="evenodd" clip-rule="evenodd" d="M180.99 129.283H173.648V125.176H179.877H187.775H194.115V129.283H186.44V143.158H180.99V129.283Z" fill="white"/>
<path fill-rule="evenodd" clip-rule="evenodd" d="M168.865 128.396H160.522V125.176H155.183V128.396H146.618C146.618 128.396 141.836 128.617 141.836 134.057C141.836 139.496 146.73 139.607 146.73 139.607H155.183V143.159H160.522V139.607H168.754C168.754 139.607 173.758 139.607 173.758 134.057C173.758 128.507 168.865 128.396 168.865 128.396ZM165.973 136.054H160.522V132.281H165.973C165.973 132.281 167.864 131.948 167.864 134.278C167.864 136.165 165.973 136.054 165.973 136.054ZM147.842 134.278C147.842 131.948 149.733 132.281 149.733 132.281H155.184V136.054H149.733C149.733 136.054 147.842 136.165 147.842 134.278Z" fill="white"/>
<path fill-rule="evenodd" clip-rule="evenodd" d="M43.5101 126.509C42.6208 125.621 40.9521 125.176 38.6164 125.176H24.3789V143.158H29.7184V137.053H38.6164C40.9521 137.053 42.6208 136.609 43.5101 135.721C44.3995 134.832 44.8453 133.501 44.8453 131.836V130.392C44.8453 128.727 44.4006 127.396 43.5101 126.507V126.509ZM37.726 132.946H29.7173V129.283H37.726C38.6153 129.283 39.5058 130.171 39.5058 131.17C39.5058 132.058 38.6164 132.946 37.726 132.946Z" fill="white"/>
<path fill-rule="evenodd" clip-rule="evenodd" d="M217.027 138.052V136.609C217.027 134.944 216.582 133.613 215.692 132.724C214.801 131.836 213.134 131.392 210.687 131.392H201.9V125.176H196.449V143.158H210.687C213.134 143.158 214.802 142.714 215.692 141.825C216.581 140.937 217.027 139.716 217.027 138.051V138.052ZM211.687 137.276C211.687 138.274 210.798 139.163 209.796 139.163H201.899V135.5H209.796C210.797 135.5 211.687 136.276 211.687 137.276Z" fill="white"/>
</svg>
