<svg width="227" height="161" viewBox="0 0 227 161" fill="none" xmlns="http://www.w3.org/2000/svg">
<path d="M172.395 50.7012C176.253 60.0029 163.921 72.8715 144.85 79.4441C125.779 86.0166 107.192 83.8042 103.334 74.5025M172.395 50.7012C174.195 55.042 160.195 63.889 141.124 70.4615M172.395 50.7012C170.595 46.3604 153.675 48.1696 134.605 54.7421C115.534 61.3147 101.534 70.1617 103.334 74.5025M103.334 74.5025C105.134 78.8433 122.054 77.0341 141.124 70.4615M141.021 29.4312C139.478 25.7105 132.153 24.7875 124.661 27.3695C117.169 29.9516 112.347 35.061 113.89 38.7817M148.093 19.2941C145.521 13.0929 132.945 11.6814 120.004 16.1414C107.063 20.6013 98.6577 29.2438 101.23 35.445M161.96 11.9482C157.33 0.786123 136.461 -2.36354 115.347 4.91321C94.2332 12.19 80.8699 27.1376 85.4995 38.2996M141.124 70.4615L131.81 48.0052M131.81 48.0052C134.535 47.0663 135.909 44.2943 134.881 41.8139C133.852 39.3334 130.809 38.0838 128.085 39.0227C125.36 39.9616 123.986 42.7336 125.015 45.2141C126.043 47.6945 129.086 48.9442 131.81 48.0052ZM125.549 134.862L137.882 130.612L135.087 123.875L122.755 128.125L125.549 134.862ZM125.549 134.862L110.75 139.962M125.549 134.862L131.138 148.336M125.549 134.862L119.961 121.388L105.162 126.488M202.01 108.51L189.677 112.761L186.883 106.024L199.216 101.773L202.01 108.51ZM202.01 108.51L216.809 103.41M202.01 108.51L207.598 121.984M202.01 108.51L196.421 95.0365L211.22 89.9363M7.15886 175.664L21.9577 170.564M7.15886 175.664L12.7472 189.138M7.15886 175.664L1.57052 162.19L16.3693 157.09M21.9577 170.564L27.546 184.037M21.9577 170.564L36.7565 165.463M21.9577 170.564L16.3693 157.09M27.546 184.037L12.7472 189.138M27.546 184.037L42.3448 178.937M27.546 184.037L33.1343 197.511M12.7472 189.138L18.3355 202.612L33.1343 197.511M320.4 67.7081L305.601 72.8084M320.4 67.7081L325.988 81.1819M320.4 67.7081L314.812 54.2343L300.013 59.3346M305.601 72.8084L311.19 86.2822M305.601 72.8084L290.803 77.9087M305.601 72.8084L300.013 59.3346M311.19 86.2822L325.988 81.1819M311.19 86.2822L296.391 91.3825M311.19 86.2822L316.778 99.756M325.988 81.1819L331.577 94.6557L316.778 99.756M66.3541 155.263L81.1529 150.163M66.3541 155.263L71.9424 168.737M66.3541 155.263L51.5553 160.363M66.3541 155.263L60.7657 141.789M81.1529 150.163L86.7412 163.636M81.1529 150.163L95.9517 145.062M81.1529 150.163L75.5645 136.689M86.7412 163.636L71.9424 168.737M86.7412 163.636L101.54 158.536M86.7412 163.636L92.3295 177.11M71.9424 168.737L57.1436 173.837M71.9424 168.737L77.5307 182.21M261.205 88.1092L246.406 93.2095M261.205 88.1092L266.793 101.583M261.205 88.1092L276.004 83.0089M261.205 88.1092L255.617 74.6354M246.406 93.2095L251.994 106.683M246.406 93.2095L231.607 98.3098M246.406 93.2095L240.818 79.7357M251.994 106.683L266.793 101.583M251.994 106.683L237.196 111.784M251.994 106.683L257.583 120.157M266.793 101.583L281.592 96.4827M266.793 101.583L272.382 115.057M36.7565 165.463L51.5553 160.363M36.7565 165.463L42.3448 178.937M36.7565 165.463L31.1681 151.99M51.5553 160.363L57.1436 173.837M51.5553 160.363L45.9669 146.889M57.1436 173.837L42.3448 178.937M57.1436 173.837L62.7319 187.311M42.3448 178.937L47.9331 192.411M290.803 77.9087L276.004 83.0089M290.803 77.9087L296.391 91.3825M290.803 77.9087L285.214 64.4349M276.004 83.0089L281.592 96.4827M276.004 83.0089L270.415 69.5352M281.592 96.4827L296.391 91.3825M281.592 96.4827L287.18 109.957M296.391 91.3825L301.979 104.856M95.9517 145.062L110.75 139.962M95.9517 145.062L101.54 158.536M95.9517 145.062L90.3633 131.589M110.75 139.962L116.339 153.436M110.75 139.962L105.162 126.488M116.339 153.436L101.54 158.536M116.339 153.436L131.138 148.336M116.339 153.436L121.927 166.91M101.54 158.536L107.128 172.01M231.607 98.3098L216.809 103.41M231.607 98.3098L237.196 111.784M231.607 98.3098L226.019 84.836M216.809 103.41L222.397 116.884M216.809 103.41L211.22 89.9363M222.397 116.884L237.196 111.784M222.397 116.884L207.598 121.984M222.397 116.884L227.985 130.358M237.196 111.784L242.784 125.257M131.138 148.336L136.726 161.809L121.927 166.91M131.138 148.336L143.47 144.085L146.264 150.822L133.932 155.072L131.138 148.336ZM207.598 121.984L213.186 135.458L227.985 130.358M207.598 121.984L195.266 126.234L198.06 132.971L210.392 128.721L207.598 121.984ZM33.1343 197.511L47.9331 192.411M316.778 99.756L301.979 104.856M92.3295 177.11L77.5307 182.21M92.3295 177.11L107.128 172.01M77.5307 182.21L62.7319 187.311M257.583 120.157L272.382 115.057M257.583 120.157L242.784 125.257M272.382 115.057L287.18 109.957M62.7319 187.311L47.9331 192.411M287.18 109.957L301.979 104.856M121.927 166.91L107.128 172.01M227.985 130.358L242.784 125.257M16.3693 157.09L31.1681 151.99M300.013 59.3346L285.214 64.4349M60.7657 141.789L75.5645 136.689M60.7657 141.789L45.9669 146.889M75.5645 136.689L90.3633 131.589M255.617 74.6354L240.818 79.7357M255.617 74.6354L270.415 69.5352M240.818 79.7357L226.019 84.836M31.1681 151.99L45.9669 146.889M285.214 64.4349L270.415 69.5352M90.3633 131.589L105.162 126.488M226.019 84.836L211.22 89.9363M169.773 173.52L196.904 164.169C203.715 161.822 207.152 154.892 204.58 148.691L180.363 90.3042C177.792 84.1031 170.185 80.979 163.374 83.3263L136.243 92.6768C129.432 95.0242 125.996 101.954 128.568 108.155L152.784 166.542C155.356 172.743 162.962 175.867 169.773 173.52ZM174.706 171.819L191.971 165.869L192.515 170.116C192.936 173.399 190.848 176.523 187.453 177.693L186.675 177.961C183.28 179.131 179.448 178.047 177.38 175.332L174.706 171.819ZM139.917 81.1442L152.249 76.8939L158.441 85.0264L141.176 90.9767L139.917 81.1442ZM132.293 117.138L184.089 99.2868L200.854 139.708L149.058 157.559L132.293 117.138ZM175.672 126.571C177.472 130.911 175.067 135.762 170.299 137.405C165.532 139.049 160.207 136.862 158.407 132.521C156.606 128.18 159.012 123.329 163.779 121.686C168.547 120.043 173.872 122.23 175.672 126.571Z" stroke="url(#paint0_linear_406_1443)" stroke-width="2" stroke-linecap="round" stroke-linejoin="round"/>
<defs>
<linearGradient id="paint0_linear_406_1443" x1="-42.9705" y1="60.554" x2="240.363" y2="264.039" gradientUnits="userSpaceOnUse">
<stop stop-color="#00BAF2"/>
<stop offset="1" stop-color="#5EB635"/>
</linearGradient>
</defs>
</svg>
