<svg width="243" height="178" viewBox="0 0 243 178" fill="none" xmlns="http://www.w3.org/2000/svg">
<g clip-path="url(#clip0_424_2399)">
<path d="M14.3301 73.0353L185.592 73.0332V105.537L14.3301 105.539V73.0353Z" fill="#EC1B24"/>
<path d="M136.072 78.8794C137.546 78.8794 138.459 79.4189 139.837 81.1675L150.085 95.7296C150.631 96.4916 150.578 97.707 149.637 98.4963C148.804 99.1953 147.331 99.2583 146.532 98.2108L144.08 94.8416H127.938L125.488 98.2738C124.623 99.2919 123.566 99.2919 122.607 98.6558C121.609 97.9946 121.355 96.7162 121.966 95.8261L132.309 81.1696C133.624 79.3559 134.664 78.8794 136.072 78.8794ZM136.685 84.268C136.415 83.8755 136.315 83.8377 136.028 83.8377C135.707 83.8377 135.58 83.9972 135.362 84.2869C135.009 84.755 130.899 90.7692 130.853 90.7692H141.23C141.209 90.7692 137.258 85.1098 136.685 84.268Z" fill="white"/>
<path d="M66.1736 78.9048H80.9373C84.6007 78.9048 84.9368 83.0906 84.9368 83.0906H66.774C65.8756 83.0906 65.0406 83.7644 65.0406 84.9378C65.0406 86.275 66.0637 86.9111 66.7106 86.9111H79.5463C82.0894 86.9111 85.7084 89.0145 85.7084 92.6461C85.7084 97.3608 81.5038 99.036 80.041 99.036H65.0237C60.5612 99.036 60.8085 94.8103 60.8085 94.8103H79.4216C80.1657 94.8103 81.2628 94.0777 81.2628 92.9819C81.2628 91.9365 80.301 91.1346 79.5928 91.1346H67.015C63.4467 91.1346 60.6816 88.5044 60.6816 84.9357C60.6753 80.9221 64.1443 78.9048 66.1736 78.9048Z" fill="white"/>
<path d="M160.8 78.8774H176.046C178.356 78.8774 181.939 80.752 181.939 85.2359V85.5214C181.939 87.9081 180.434 90.0052 178.32 91.0212C178.32 91.0212 178.472 91.25 181.747 95.6625C182.172 96.2335 182.195 97.6022 181.267 98.4293C180.381 99.2186 178.906 99.3172 178.162 98.4608C177.122 97.2663 175.919 95.694 172.621 91.5313H166.664C164.967 91.5313 162.662 90.1942 162.662 87.2385H175.536C176.236 87.2091 177.356 86.5437 177.356 85.238C177.356 84.0309 176.278 83.2018 175.53 83.2018H161.312L161.322 96.5841C161.324 98.0451 160.195 99.0296 158.98 99.0296C157.826 99.0296 156.676 98.0136 156.676 96.645V83.0107C156.672 80.7184 159.105 78.8774 160.8 78.8774Z" fill="white"/>
<path d="M97.9683 78.9111H113.214C115.524 78.9111 119.108 80.7878 119.108 85.2696V85.5551C119.108 87.9439 117.602 90.0389 115.489 91.0549C115.489 91.0549 114.396 91.4055 113.37 91.5335H103.794C102.097 91.5335 99.9195 90.167 99.9195 87.2092H112.664C113.364 87.1798 114.52 86.5774 114.52 85.2717C114.52 84.0646 113.442 83.2355 112.694 83.2355L98.4778 83.2334L98.4863 96.6178C98.4884 98.0788 97.3595 99.0633 96.144 99.0633C94.9898 99.0633 93.8398 98.0473 93.8398 96.6786V83.0444C93.8377 80.7521 96.2709 78.9111 97.9683 78.9111Z" fill="white"/>
<path d="M193.754 89.7239C193.754 95.9606 196.916 101.547 202.489 104.28C207.725 106.849 214.703 106.849 219.954 104.28C225.133 101.746 228.672 95.9627 228.672 89.7239C228.672 80.1831 220.985 72.3867 211.213 72.3867C201.394 72.3867 193.754 80.1222 193.754 89.7239Z" fill="#157946"/>
<path d="M211.222 76.8808C209.465 82.7964 204.229 91.466 200.409 95.7169H209.465L209.486 98.2926C209.465 99.7536 208.296 101.269 206.595 101.248C204.229 101.221 201.272 100.136 199.485 97.1233C198.183 94.9255 197.238 93.1936 197.238 89.7237C197.238 82.1393 203.39 75.8564 211.216 75.8564C218.955 75.8564 225.193 82.324 225.193 89.7237C225.193 93.1957 223.561 96.1976 223.022 97.0624C221.111 100.136 218.202 101.221 215.949 101.248C214.395 101.267 212.964 100.136 212.964 98.2842V95.7148H222.159C218.2 91.466 212.964 82.7985 211.222 76.8808Z" fill="white"/>
</g>
<defs>
<clipPath id="clip0_424_2399">
<rect width="214.342" height="33.82" fill="white" transform="translate(14.3301 72.3867)"/>
</clipPath>
</defs>
</svg>
