<svg width="242" height="178" viewBox="0 0 242 178" fill="none" xmlns="http://www.w3.org/2000/svg">
<mask id="mask0_424_2408" style="mask-type:luminance" maskUnits="userSpaceOnUse" x="10" y="58" width="221" height="62">
<path d="M230.85 58.7522H10.5527V119.248H230.85V58.7522Z" fill="white"/>
</mask>
<g mask="url(#mask0_424_2408)">
<path d="M35.359 71.3689C39.251 81.2343 32.9052 87.5667 26.5841 93.9094C20.7013 100.39 15.5193 107.126 25.9417 119.249C22.0484 109.385 28.3955 103.051 34.7114 96.715C40.5994 90.2204 45.7814 83.4932 35.359 71.3689Z" fill="#EF3D42"/>
<path d="M25.9421 58.7524C29.8406 68.6217 23.4974 74.9502 17.1712 81.289C11.2896 87.7746 6.10897 94.5108 16.5353 106.634C12.6394 96.7619 18.9852 90.4348 25.3049 84.096C31.1904 77.6091 36.3658 70.8754 25.9421 58.7524Z" fill="#00B274"/>
</g>
<path d="M185.885 97.8231V117.988H194.726V110.606H204.441V106.192H194.726V102.237H213.997V117.988H222.84V102.237H230.85V97.8231H185.885Z" fill="#00B274"/>
<path d="M166.915 113.612V110.116H178.444V105.699H166.915V102.237H181.724V97.8231H158.074V117.988H181.906V113.612H166.915Z" fill="#00B274"/>
<path d="M73.6642 97.8231H49.1641V102.237H56.9936V117.988H65.8347V102.237H73.6642V97.8231Z" fill="#EF3D42"/>
<path d="M80.3595 110.347L84.4504 102.542L88.3658 110.347H80.3595ZM91.1213 97.8231H81.6443L70.6094 117.988H76.3557L78.1697 114.526H90.5609L92.3697 117.988H102.161L91.1213 97.8231Z" fill="#EF3D42"/>
<path d="M147.225 97.8231V107.904L133.085 97.8231H126.223V117.988H132.275V106.894L146.794 117.988H153.275V97.8231H147.225Z" fill="#00B274"/>
<path d="M123.219 97.8231H99.2324V102.237H107.061V117.988H115.903V102.237H123.219V97.8231Z" fill="#EF3D42"/>
</svg>
