<svg width="51" height="50" viewBox="0 0 51 50" fill="none" xmlns="http://www.w3.org/2000/svg">
<g clip-path="url(#clip0_1139_280)">
<path d="M25.5104 50.0208C39.3233 50.0208 50.5208 38.8233 50.5208 25.0104C50.5208 11.1975 39.3233 0 25.5104 0C11.6975 0 0.5 11.1975 0.5 25.0104C0.5 38.8233 11.6975 50.0208 25.5104 50.0208Z" fill="url(#paint0_linear_1139_280)"/>
<path fill-rule="evenodd" clip-rule="evenodd" d="M11.8087 24.7394C19.0973 21.5741 23.9495 19.4708 26.3859 18.4504C33.3206 15.5558 34.7783 15.056 35.7154 15.0352C35.9236 15.0352 36.3818 15.0768 36.6941 15.3267C36.944 15.5349 37.0065 15.8057 37.0482 16.0139C37.0898 16.2222 37.1315 16.6595 37.0898 16.9927C36.715 20.9494 35.0906 30.5495 34.2577 34.9644C33.9036 36.8386 33.2164 37.4633 32.55 37.5258C31.0923 37.6507 29.9886 36.5679 28.5934 35.6516C26.3859 34.2147 25.1573 33.3192 23.0123 31.9031C20.5342 30.2788 22.1377 29.3833 23.5538 27.9256C23.9286 27.5508 30.3218 21.7199 30.4467 21.1993C30.4676 21.1368 30.4676 20.8869 30.3218 20.7619C30.176 20.637 29.9678 20.6786 29.8012 20.7203C29.5721 20.7619 26.0736 23.0943 19.2639 27.6965C18.2643 28.3838 17.3689 28.717 16.5567 28.6961C15.6612 28.6753 13.9536 28.1963 12.6625 27.7798C11.1006 27.2801 9.85116 27.0093 9.95529 26.1347C10.0178 25.6766 10.6425 25.2184 11.8087 24.7394Z" fill="white"/>
</g>
<defs>
<linearGradient id="paint0_linear_1139_280" x1="25.4896" y1="0" x2="25.4896" y2="49.6252" gradientUnits="userSpaceOnUse">
<stop stop-color="#2AABEE"/>
<stop offset="1" stop-color="#229ED9"/>
</linearGradient>
<clipPath id="clip0_1139_280">
<rect width="50" height="50" fill="white" transform="translate(0.5)"/>
</clipPath>
</defs>
</svg>
