<svg width="243" height="178" viewBox="0 0 243 178" fill="none" xmlns="http://www.w3.org/2000/svg">
<path d="M153.305 61.1821V63.6244H174.388C175.793 63.6244 177.902 63.6244 179.286 65.0212C180.67 66.418 180.692 68.5133 180.692 69.8889V90.841C180.692 92.2378 180.692 94.333 179.286 95.7086C177.881 97.1054 175.772 97.1054 174.388 97.1054H164.208C162.453 97.1054 160.166 97.1054 159.31 95.1837C158.433 93.2621 159.661 91.5182 160.716 90.1045L174.431 71.946H153.347L144.914 83.1204C143.5 84.9913 142.277 86.6124 142.277 88.7076C142.277 90.8029 143.415 92.3097 144.914 94.2949L147.022 97.0885C149.131 99.8821 151.239 102.676 154.05 104.072C156.861 105.469 160.183 105.469 164.783 105.469H173.898C179.18 105.469 187.059 105.469 192.341 100.221C197.622 94.9721 197.622 87.3108 197.622 84.5172V76.1364C197.622 73.3428 197.622 65.6816 192.341 60.433C187.059 55.1844 179.18 55.1844 173.898 55.1844L159.331 55.1797C157.926 55.1793 156.171 55.1797 154.774 56.5765C153.368 57.9733 153.368 59.7172 153.368 61.1055" fill="#C4151C"/>
<path d="M128.177 72.0181H149.047L123.917 105.626H103.047L128.177 72.0181Z" fill="#C4151C"/>
<path d="M45.9727 77.9439C45.9727 76.5471 45.9727 74.8032 47.3782 73.4149C48.7838 72.0265 50.5386 72.0181 51.9356 72.0181H87.2449C91.8023 72.0181 95.1672 72.0181 97.9783 73.4149C100.789 74.8117 102.876 77.6053 105.006 80.3989L107.114 83.1925C108.609 85.1734 109.751 86.6845 109.751 88.7797C109.751 90.8749 108.528 92.4961 107.114 94.3669L98.6811 105.541H77.5977L91.3125 87.3829C92.3646 85.9861 93.5955 84.2422 92.7181 82.3036C91.8407 80.382 89.5577 80.382 87.8199 80.382H71.294V122.286H54.4273V80.382H45.994V77.9354" fill="#C4151C"/>
</svg>
