<svg width="26" height="26" viewBox="0 0 26 26" fill="none" xmlns="http://www.w3.org/2000/svg">
<path d="M25.7006 25.713C25.5143 25.8965 25.2634 25.9996 25.0019 26C24.7369 25.9989 24.4824 25.8962 24.2908 25.713L18.9011 20.3109C16.6312 22.2175 13.7129 23.1742 10.7548 22.9814C7.79672 22.7886 5.02724 21.4613 3.02399 19.2762C1.02075 17.0911 -0.0615915 14.2171 0.00270938 11.2534C0.0670103 8.28969 1.27299 5.46525 3.36912 3.36912C5.46525 1.27299 8.28969 0.0670103 11.2534 0.00270938C14.2171 -0.0615915 17.0911 1.02075 19.2762 3.02399C21.4613 5.02724 22.7886 7.79672 22.9814 10.7548C23.1742 13.7129 22.2175 16.6312 20.3109 18.9011L25.7006 24.2908C25.7949 24.3837 25.8698 24.4944 25.9209 24.6164C25.972 24.7385 25.9983 24.8696 25.9983 25.0019C25.9983 25.1343 25.972 25.2653 25.9209 25.3874C25.8698 25.5095 25.7949 25.6202 25.7006 25.713ZM11.5278 21.0096C13.4031 21.0096 15.2363 20.4535 16.7956 19.4116C18.3549 18.3698 19.5702 16.8889 20.2878 15.1563C21.0055 13.4238 21.1933 11.5173 20.8274 9.67803C20.4615 7.83875 19.5585 6.14926 18.2324 4.82321C16.9064 3.49716 15.2169 2.59411 13.3776 2.22825C11.5383 1.8624 9.63188 2.05017 7.89931 2.76782C6.16675 3.48547 4.6859 4.70077 3.64403 6.26004C2.60216 7.81931 2.04606 9.65251 2.04606 11.5278C2.04936 14.0415 3.04939 16.4513 4.82685 18.2288C6.60432 20.0063 9.01412 21.0063 11.5278 21.0096Z" fill="white"/>
</svg>
