<svg width="213" height="151" viewBox="0 0 213 151" fill="none" xmlns="http://www.w3.org/2000/svg">
<path d="M150.988 150.994C138.299 150.994 127.361 147.988 118.176 141.974C108.99 135.914 101.911 127.225 96.9398 115.909C91.9682 104.545 89.5061 90.8854 89.5534 74.929C89.6008 58.9725 92.0866 45.4309 97.0108 34.304C101.982 23.1297 109.037 14.6307 118.176 8.80682C127.361 2.93561 138.299 0 150.988 0C163.677 0 174.615 2.93561 183.801 8.80682C193.034 14.6307 200.136 23.1297 205.107 34.304C210.079 45.4782 212.541 59.0199 212.494 74.929C212.494 90.9328 210.008 104.616 205.036 115.98C200.065 127.344 192.986 136.032 183.801 142.045C174.662 148.011 163.725 150.994 150.988 150.994ZM150.988 122.23C158.564 122.23 164.695 118.371 169.383 110.653C174.07 102.888 176.391 90.9801 176.343 74.929C176.343 64.4176 175.278 55.7528 173.147 48.9347C171.016 42.0691 168.057 36.9555 164.269 33.5938C160.481 30.232 156.054 28.5511 150.988 28.5511C143.46 28.5511 137.375 32.3627 132.735 39.9858C128.095 47.5616 125.751 59.2093 125.704 74.929C125.657 85.5824 126.675 94.4129 128.758 101.42C130.889 108.428 133.872 113.66 137.707 117.116C141.542 120.526 145.969 122.23 150.988 122.23Z" fill="#00BAF2"/>
<path d="M68.6768 1.98853V147.443H33.5916V34.801H32.7393L0.210938 54.6874V24.2897L36.0774 1.98853H68.6768Z" fill="#00BAF2"/>
</svg>
