<svg width="243" height="178" viewBox="0 0 243 178" fill="none" xmlns="http://www.w3.org/2000/svg">
<g clip-path="url(#clip0_424_2379)">
<path d="M121.501 58.708L103.588 49.2466L85.8281 58.708H121.501Z" fill="url(#paint0_linear_424_2379)"/>
<path d="M85.8281 58.708V77.7835L103.588 87.245L85.8281 58.708Z" fill="url(#paint1_linear_424_2379)"/>
<path d="M103.588 87.245L121.501 77.7835V58.708L103.588 87.245Z" fill="url(#paint2_linear_424_2379)"/>
<path d="M157.175 77.7837L139.415 87.2451L121.502 77.7837H157.175Z" fill="url(#paint3_linear_424_2379)"/>
<path d="M121.502 77.7835V58.708L139.415 49.2466L121.502 77.7835Z" fill="url(#paint4_linear_424_2379)"/>
<path d="M139.414 49.2466L157.174 58.708V77.7835L139.414 49.2466Z" fill="url(#paint5_linear_424_2379)"/>
<path d="M134.67 98.0801C125.33 98.0801 118.594 104.032 118.594 113.34C118.594 122.802 125.177 128.601 134.67 128.601C144.162 128.601 150.745 122.802 150.745 113.34C150.745 103.879 144.162 98.0801 134.67 98.0801ZM134.67 122.192C129.77 122.192 126.249 118.529 126.249 113.34C126.249 108.152 129.77 104.489 134.67 104.489C139.875 104.489 143.09 107.999 143.09 113.34C143.243 118.529 139.722 122.192 134.67 122.192Z" fill="white"/>
<path d="M45.1029 99.606L32.2422 128.601H40.9691L53.0642 121.734H43.1125L49.0835 106.778L57.6573 128.601H65.9249L53.0642 99.606H45.1029Z" fill="white"/>
<path d="M197.9 99.606H189.939L177.078 128.601H185.346L193.919 106.778L199.891 121.734H189.939L202.034 128.601H210.761L197.9 99.606Z" fill="white"/>
<path d="M75.5697 121.734V99.606H68.2207V128.601H70.8235H75.5697H85.0621L89.349 121.734H75.5697Z" fill="white"/>
<path d="M157.48 127.685C155.183 127.075 153.499 126.312 152.121 125.549L154.877 119.75C156.102 120.513 157.633 121.276 159.47 121.734C161.307 122.191 162.991 122.497 164.676 122.497C168.197 122.497 169.881 121.581 169.881 119.902C169.881 119.139 169.422 118.529 168.503 118.224C167.585 117.918 166.053 117.613 164.216 117.308C161.92 117.003 159.929 116.545 158.551 116.087C157.02 115.629 155.796 114.866 154.571 113.646C153.499 112.425 152.887 110.899 152.887 108.762C152.887 106.931 153.346 105.405 154.418 104.031C155.489 102.658 157.02 101.59 159.011 100.827C161.001 100.064 163.298 99.606 166.053 99.606C168.044 99.606 170.034 99.7586 172.025 100.216C174.015 100.674 175.699 101.285 176.924 102.048L174.168 107.847C171.565 106.473 168.809 105.71 165.9 105.71C164.216 105.71 162.838 106.015 161.92 106.473C161.001 106.931 160.542 107.541 160.542 108.304C160.542 109.22 161.001 109.83 161.92 110.136C162.838 110.441 164.369 110.746 166.36 111.204C168.656 111.662 170.493 111.967 172.025 112.425C173.556 112.883 174.78 113.646 175.852 114.866C176.924 116.087 177.536 117.613 177.536 119.75C177.536 121.428 177.077 123.107 176.005 124.48C174.933 125.854 173.402 126.922 171.412 127.685C169.422 128.448 166.972 128.753 164.216 128.753C161.92 128.601 159.623 128.296 157.48 127.685Z" fill="white"/>
<path d="M111.397 117.919C113.847 116.24 115.531 113.798 115.531 109.831C115.531 102.658 110.325 99.4536 104.201 99.4536L91.1875 99.6062V128.601H98.5365V106.016L103.742 105.863C106.345 105.863 108.488 107.236 108.488 110.288C108.488 113.341 105.885 114.561 103.283 114.561H101.292L103.283 117.919L109.407 128.601H117.674L111.397 117.919Z" fill="white"/>
</g>
<defs>
<linearGradient id="paint0_linear_424_2379" x1="85.7706" y1="53.9988" x2="121.483" y2="53.9988" gradientUnits="userSpaceOnUse">
<stop stop-color="#800000"/>
<stop offset="0.5" stop-color="#FF0000"/>
<stop offset="1" stop-color="#FCA789"/>
</linearGradient>
<linearGradient id="paint1_linear_424_2379" x1="96.4416" y1="89.5752" x2="81.7132" y2="65.9432" gradientUnits="userSpaceOnUse">
<stop stop-color="#800000"/>
<stop offset="0.5" stop-color="#FF0000"/>
<stop offset="1" stop-color="#FCA789"/>
</linearGradient>
<linearGradient id="paint2_linear_424_2379" x1="117.787" y1="61.1137" x2="103.056" y2="84.7494" gradientUnits="userSpaceOnUse">
<stop stop-color="#800000"/>
<stop offset="0.5" stop-color="#FF0000"/>
<stop offset="1" stop-color="#FCA789"/>
</linearGradient>
<linearGradient id="paint3_linear_424_2379" x1="157.239" y1="82.4607" x2="121.519" y2="82.4607" gradientUnits="userSpaceOnUse">
<stop stop-color="#021729"/>
<stop offset="0.5" stop-color="#095CA6"/>
<stop offset="1" stop-color="#99C4DE"/>
</linearGradient>
<linearGradient id="paint4_linear_424_2379" x1="125.216" y1="75.3446" x2="139.944" y2="51.71" gradientUnits="userSpaceOnUse">
<stop stop-color="#021729"/>
<stop offset="0.5" stop-color="#095CA6"/>
<stop offset="1" stop-color="#99C4DE"/>
</linearGradient>
<linearGradient id="paint5_linear_424_2379" x1="146.561" y1="46.8832" x2="161.291" y2="70.5184" gradientUnits="userSpaceOnUse">
<stop stop-color="#021729"/>
<stop offset="0.5" stop-color="#095CA6"/>
<stop offset="1" stop-color="#99C4DE"/>
</linearGradient>
<clipPath id="clip0_424_2379">
<rect width="178.518" height="79.5067" fill="white" transform="translate(32.2422 49.2466)"/>
</clipPath>
</defs>
</svg>
