<svg width="30" height="30" viewBox="0 0 30 30" fill="none" xmlns="http://www.w3.org/2000/svg">
<g clip-path="url(#clip0_1257_1737)">
<path fill-rule="evenodd" clip-rule="evenodd" d="M25.9486 4.39336C26.232 4.6768 26.232 5.13636 25.9486 5.4198L5.41969 25.9487C5.13625 26.2321 4.67669 26.2321 4.39325 25.9487C4.1098 25.6653 4.1098 25.2057 4.39325 24.9223L24.9222 4.39336C25.2056 4.10991 25.6652 4.10991 25.9486 4.39336Z" fill="white"/>
<path fill-rule="evenodd" clip-rule="evenodd" d="M4.39325 4.05121C4.67669 3.76776 5.13625 3.76776 5.41969 4.05121L25.9486 24.5801C26.232 24.8636 26.232 25.3231 25.9486 25.6066C25.6652 25.89 25.2056 25.89 24.9222 25.6066L4.39325 5.07765C4.1098 4.79421 4.1098 4.33465 4.39325 4.05121Z" fill="white"/>
</g>
<defs>
<clipPath id="clip0_1257_1737">
<rect width="30" height="30" fill="white"/>
</clipPath>
</defs>
</svg>
