<svg width="268" height="202" viewBox="0 0 268 202" fill="none" xmlns="http://www.w3.org/2000/svg">
<path d="M161.014 157.943L100.065 169.517L109.625 221.89L1.03715 154.303L78.504 51.3868L89.0452 109.14L201.319 87.8208M161.014 157.943C161.808 162.293 165.898 165.162 170.15 164.355C174.402 163.547 177.205 159.367 176.411 155.018C175.617 150.668 171.527 147.797 167.275 148.604C163.023 149.412 160.22 153.594 161.014 157.943ZM68.6936 88.5583L24.1451 149.98L87.3797 190.936M220.924 35.2074L283.679 73.5378L238.651 132.335M104.897 141.439L217.172 120.119L226.731 172.492L304.198 69.5763L195.61 1.98939L206.152 59.7428L155.468 69.3669M155.468 69.3669C156.262 73.7163 153.458 77.8947 149.206 78.7021C144.954 79.5095 140.864 76.6381 140.07 72.2888C139.276 67.9394 142.079 63.7591 146.331 62.9517C150.583 62.1443 154.674 65.0176 155.468 69.3669ZM104.658 140.124C105.848 146.648 101.643 152.919 95.2655 154.13C88.8876 155.341 82.7519 151.034 81.5612 144.51C80.3704 137.986 84.5754 131.715 90.9533 130.504C97.3312 129.293 103.467 133.6 104.658 140.124ZM224.176 82.1206C225.367 88.6447 221.162 94.9152 214.784 96.1263C208.406 97.3374 202.27 93.0304 201.079 86.5063C199.889 79.9823 204.094 73.7118 210.472 72.5007C216.849 71.2896 222.985 75.5966 224.176 82.1206Z" stroke="url(#paint0_linear_406_1450)" stroke-width="2" stroke-linecap="round" stroke-linejoin="round"/>
<defs>
<linearGradient id="paint0_linear_406_1450" x1="-21.1716" y1="44.2638" x2="236.863" y2="275.666" gradientUnits="userSpaceOnUse">
<stop stop-color="#00BAF2"/>
<stop offset="1" stop-color="#5EB635"/>
</linearGradient>
</defs>
</svg>
