<svg width="256" height="194" viewBox="0 0 256 194" fill="none" xmlns="http://www.w3.org/2000/svg">
<g clip-path="url(#clip0_406_1480)">
<path d="M125.969 278.545L125.969 212.034L122.47 208.518M125.969 278.545L138.797 278.545M125.969 278.545L104.103 256.57M138.797 278.545L152.5 278.545M138.797 278.545L138.797 74.9095M152.5 278.545L152.5 212.034L157.748 206.76M152.5 278.545L174.366 256.57M174.366 190.059L196.233 168.084L196.233 74.9095L222.18 74.9095M174.366 190.059L174.366 39.1634L252.21 39.1634M174.366 190.059L157.748 206.76M122.47 208.518L104.103 190.059M122.47 208.518L122.47 98.0565M104.103 190.059L82.2365 168.084L82.2365 74.9095L53.0815 74.9095M104.103 190.059L104.103 39.1635L30.049 39.1635M157.748 206.76L157.748 98.0565M196.233 234.595L222.18 234.595L222.18 95.7125M196.233 234.595L196.233 190.059M196.233 234.595L174.366 256.57M82.2365 234.595L53.0815 234.595L53.0815 98.0565M82.2365 234.595L82.2365 190.059M82.2365 234.595L104.103 256.57M174.366 256.57L174.366 206.76M104.103 256.57L104.103 206.76M104.103 206.76C105.23 206.76 106.144 205.841 106.144 204.709C106.144 203.576 105.23 202.658 104.103 202.658C102.976 202.658 102.062 203.576 102.062 204.709C102.062 205.841 102.976 206.76 104.103 206.76ZM176.699 204.709C176.699 205.841 175.785 206.76 174.658 206.76C173.531 206.76 172.617 205.841 172.617 204.709C172.617 203.576 173.531 202.658 174.658 202.658C175.785 202.658 176.699 203.576 176.699 204.709ZM223.93 93.9545C223.93 95.0872 223.016 96.0055 221.889 96.0055C220.762 96.0055 219.848 95.0872 219.848 93.9545C219.848 92.8218 220.762 91.9035 221.889 91.9035C223.016 91.9035 223.93 92.8218 223.93 93.9545ZM256 38.2844C256 39.4172 255.087 40.3354 253.959 40.3354C252.832 40.3354 251.919 39.4172 251.919 38.2844C251.919 37.1517 252.832 36.2334 253.959 36.2334C255.087 36.2334 256 37.1517 256 38.2844ZM159.789 96.2985C159.789 97.4313 158.875 98.3495 157.748 98.3495C156.621 98.3495 155.707 97.4313 155.707 96.2985C155.707 95.1658 156.621 94.2475 157.748 94.2475C158.875 94.2475 159.789 95.1658 159.789 96.2985ZM124.803 96.2985C124.803 97.4313 123.889 98.3495 122.762 98.3495C121.635 98.3495 120.721 97.4313 120.721 96.2985C120.721 95.1658 121.635 94.2475 122.762 94.2475C123.889 94.2475 124.803 95.1658 124.803 96.2985ZM55.4139 96.2985C55.4139 97.4313 54.5002 98.3495 53.373 98.3495C52.2459 98.3495 51.3322 97.4313 51.3322 96.2985C51.3322 95.1658 52.2459 94.2475 53.373 94.2475C54.5002 94.2475 55.4139 95.1658 55.4139 96.2985ZM29.7575 38.8705C29.7575 40.0032 28.8438 40.9215 27.7166 40.9215C26.5895 40.9215 25.6758 40.0032 25.6758 38.8705C25.6758 37.7377 26.5895 36.8195 27.7166 36.8195C28.8438 36.8195 29.7575 37.7377 29.7575 38.8705ZM53.0815 74.6165C53.0815 76.0729 51.9067 77.2535 50.4575 77.2535C49.0084 77.2535 47.8336 76.0729 47.8336 74.6165C47.8336 73.1601 49.0084 71.9795 50.4575 71.9795C51.9067 71.9795 53.0815 73.1601 53.0815 74.6165ZM141.13 72.2725C141.13 73.7289 139.955 74.9095 138.506 74.9095C137.056 74.9095 135.882 73.7289 135.882 72.2725C135.882 70.8161 137.056 69.6355 138.506 69.6355C139.955 69.6355 141.13 70.8161 141.13 72.2725ZM85.152 187.715C85.152 189.171 83.9772 190.352 82.528 190.352C81.0789 190.352 79.9041 189.171 79.9041 187.715C79.9041 186.258 81.0789 185.078 82.528 185.078C83.9772 185.078 85.152 186.258 85.152 187.715ZM198.856 187.715C198.856 189.171 197.682 190.352 196.233 190.352C194.783 190.352 193.609 189.171 193.609 187.715C193.609 186.258 194.783 185.078 196.233 185.078C197.682 185.078 198.856 186.258 198.856 187.715ZM227.428 74.6165C227.428 76.0729 226.254 77.2535 224.804 77.2535C223.355 77.2535 222.18 76.0729 222.18 74.6165C222.18 73.1601 223.355 71.9795 224.804 71.9795C226.254 71.9795 227.428 73.1601 227.428 74.6165Z" stroke="url(#paint0_linear_406_1480)" stroke-width="2"/>
</g>
<defs>
<linearGradient id="paint0_linear_406_1480" x1="100.051" y1="10.0435" x2="220.753" y2="179.354" gradientUnits="userSpaceOnUse">
<stop stop-color="#00BAF2"/>
<stop offset="1" stop-color="#5EB635"/>
</linearGradient>
<clipPath id="clip0_406_1480">
<rect width="256" height="194" rx="20" transform="matrix(1 0 0 -1 0 194)" fill="white"/>
</clipPath>
</defs>
</svg>
