<svg width="2932" height="236" viewBox="0 0 2932 236" fill="none" xmlns="http://www.w3.org/2000/svg">
<path d="M2196.86 84.1571L2211.37 103.496L2225.87 84.1571" stroke="#00BAF2" stroke-width="2"/>
<path d="M2071.16 104.456L2056.65 85.1177L2042.15 104.456" stroke="#00BAF2" stroke-width="2"/>
<path d="M2931.72 234.996C2773.15 234.996 2365.3 235 2300.32 235C2172.69 235 2056.65 186.65 2056.65 95.7625C2056.65 90.1424 2056.65 85.6061 2056.65 85.6061M0.000378132 235C217.237 235 1894.4 235 1968.66 235C2086.86 235 2195.79 181.956 2209.84 111.23M2211.36 102.527C2211.36 102.527 2211.36 99.0155 2211.36 95.7626C2211.36 26.1401 2168.82 1 2134.01 1C2102.82 1 2062.94 20.822 2057.01 77.3872" stroke="#00BAF2" stroke-width="2"/>
</svg>
