<svg width="243" height="178" viewBox="0 0 243 178" fill="none" xmlns="http://www.w3.org/2000/svg">
<path fill-rule="evenodd" clip-rule="evenodd" d="M103.014 139.382H99.6815L101.348 135.027L103.014 139.382ZM104.138 142.315L104.881 144.261H108.548L103.034 130.383H99.7186L94.2036 144.261H97.8136L98.5588 142.315H104.138ZM88.3591 144.262V136.014L84.7798 140.371L81.202 136.014V144.262H77.6172V130.384H81.1529L84.7798 135.156L88.4077 130.384H91.9434V144.262H88.3591ZM110.827 130.384V144.262H114.413V133.607H119.426V130.384H110.827ZM130.869 138.825V144.262H134.454V130.384H130.869V135.563H125.543V130.384H121.959V144.262H125.543V138.825H130.869ZM156.994 144.262V133.607H152.805V130.384H164.787V133.607H160.579V144.262H156.994ZM146.698 136.353V144.262H150.285V130.384H147.189L141.579 138.21V130.384H137.993V144.262H140.992L146.698 136.353Z" fill="#E6000E"/>
<path d="M85.3508 40.8673C80.3609 45.7957 77.6172 52.3288 77.6172 59.2663V93.3711L79.9855 93.0117C85.8048 92.1342 90.3035 87.376 90.9234 81.4768L90.9998 59.2663C90.9998 55.8683 92.3575 52.6554 94.8132 50.223C97.2732 47.7967 100.521 46.4594 103.959 46.4594H164.787V33.2271H103.959C96.9458 33.2271 90.3363 35.9408 85.3508 40.8673Z" fill="#E6000E"/>
<path d="M77.6172 107.099V120.332H138.445C145.465 120.332 152.068 117.619 157.051 112.689C162.043 107.761 164.787 101.23 164.787 94.2922V60.1883L162.421 60.5437C156.143 61.4907 151.411 66.9348 151.411 73.2127L151.4 94.2922C151.4 97.6958 150.049 100.906 147.582 103.329C145.131 105.762 141.883 107.099 138.445 107.099H77.6172Z" fill="#E6000E"/>
<path d="M129.234 76.5097V93.3711H139.881V60.1883H129.794L121.201 70.8565L112.605 60.1883H102.523V93.3711H113.166V76.5097L121.201 85.7363L129.234 76.5097Z" fill="#E6000E"/>
</svg>
