<svg width="243" height="178" viewBox="0 0 243 178" fill="none" xmlns="http://www.w3.org/2000/svg">
<path fill-rule="evenodd" clip-rule="evenodd" d="M94.7855 130.127H91.9117L90.1432 145.063H89.4802L87.2694 130.127H82.8477L80.8574 145.063H80.415L78.2042 130.127H75.3303L77.9836 149.457H82.8465L85.0573 134.298H85.278L87.2682 149.457H92.3529L94.7855 130.127ZM99.2072 149.457H102.302V142.207H108.491V149.457H111.586V130.346H108.491V137.594H102.302V130.346H99.2072V149.457ZM127.943 139.133C127.943 133.423 125.291 129.908 120.429 129.908C115.123 129.908 112.912 133.423 112.912 139.133C112.912 144.404 114.681 149.459 120.429 149.459C125.954 149.457 127.943 144.404 127.943 139.133ZM129.271 149.457H138.112V145.063H132.365V130.127H129.271V149.457ZM159.333 130.347H153.586L149.385 149.459H152.702L153.365 145.944H159.554L160.217 149.459H163.311L159.333 130.347ZM155.576 134.519H157.345L158.892 142.867H153.808L155.576 134.519ZM66.0493 149.457H74.0078V145.063H67.5971V141.328H74.0078V138.693H67.5971V134.518H74.0078V130.126H64.5014V145.502L59.1961 130.126H54.332V149.456H57.4265L57.2047 134.297L62.7318 149.456L66.0493 149.457ZM139.439 149.457H148.282V145.063H142.533V130.127H139.439V149.457ZM175.251 145.503L169.723 130.127H164.861V149.457H167.956L167.734 134.298L173.262 149.457H180.334C186.747 149.457 188.072 146.162 188.072 138.913C187.85 132.982 186.083 130.127 180.334 130.127H175.03V138.913L175.251 145.503ZM178.346 139.573V134.3H180.555C183.872 134.3 185.42 135.399 185.42 139.793V139.573C185.42 143.967 183.872 145.284 180.555 145.064H178.346V139.573ZM125.07 139.133C125.07 141.989 124.848 145.284 120.427 145.284C116.006 145.284 115.563 141.988 115.563 139.133C115.563 136.498 116.89 134.3 120.427 134.3C123.967 134.3 125.07 136.498 125.07 139.133Z" fill="#1B4781"/>
<path fill-rule="evenodd" clip-rule="evenodd" d="M79.3114 67.957C79.3114 66.6381 80.1962 65.76 80.8592 66.4188C88.8178 74.3278 118.218 95.8554 117.996 114.749C117.775 115.848 116.891 116.507 115.786 116.507C93.9013 114.968 75.9951 106.4 79.3114 67.957ZM147.397 34.3455C141.208 31.0499 134.795 29.5129 127.06 29.0732C125.513 29.0732 124.848 30.1718 124.628 31.4896C123.966 41.3752 124.185 46.8667 123.966 56.5332C123.744 58.0714 124.848 60.048 126.618 57.8521C134.796 49.9431 139.438 45.5501 147.619 37.6411C148.944 36.5426 148.503 34.7852 147.397 34.3455ZM94.3425 34.3455C100.753 31.0499 107.164 29.5129 114.901 29.0732C116.449 29.0732 117.112 30.1718 117.333 31.4896C117.996 41.3752 117.776 46.8667 117.996 56.5332C118.218 58.0714 117.112 60.048 115.123 57.8521C106.943 49.9431 102.301 45.5501 94.3437 37.6411C92.7959 36.5426 93.4589 34.7852 94.3425 34.3455ZM152.48 40.4971C137.008 55.2154 123.303 65.1011 123.966 91.4625C123.966 92.561 124.848 93.6595 126.397 92.3418C139.218 79.8205 146.513 73.0101 159.554 60.4888C161.546 58.511 161.987 56.7536 161.324 53.6784C159.997 48.1857 158.891 45.7694 155.575 41.3764C154.692 40.4971 153.808 40.0574 152.48 40.4971ZM89.4796 40.4971C104.953 55.2154 118.659 65.1011 117.995 91.4625C117.995 92.561 117.11 93.6595 115.563 92.3418C102.742 79.8205 95.4468 73.0101 82.4047 60.4888C80.4156 58.511 79.9732 56.7536 80.6362 53.6784C81.9623 48.1857 83.0677 45.7694 86.3839 41.3764C87.2688 40.4971 88.1536 40.0574 89.4796 40.4971ZM162.869 67.957C162.869 66.6381 162.207 65.76 161.323 66.4188C153.585 74.3278 123.965 95.8554 124.184 114.749C124.406 115.848 125.511 116.507 126.617 116.507C148.282 114.968 166.186 106.4 162.869 67.957Z" fill="#1B4781"/>
</svg>
