<svg width="254" height="214" viewBox="0 0 254 214" fill="none" xmlns="http://www.w3.org/2000/svg">
<path d="M229.756 123.953H265.817M229.756 164.75H265.817M60.8249 123.953H24.7635M60.8249 164.75H24.7635M161.1 134.651H129.48C126.048 134.651 123.265 137.415 123.265 140.824V172.241C123.265 175.65 126.048 178.415 129.48 178.415H161.1C164.533 178.415 167.315 175.65 167.315 172.241V140.824C167.315 137.415 164.533 134.651 161.1 134.651ZM148.245 157.77V161.857C148.245 163.477 146.922 164.792 145.29 164.792C144.476 164.792 143.737 164.464 143.202 163.933C142.666 163.401 142.338 162.668 142.338 161.858V157.772C140.376 156.725 139.042 154.667 139.042 152.301C139.042 148.811 141.944 145.991 145.481 146.095C148.717 146.19 151.377 148.783 151.534 151.995C151.654 154.489 150.29 156.681 148.246 157.772L148.245 157.77ZM159.53 130.72H155.052V120.57C155.052 115.222 150.673 110.871 145.29 110.871C139.907 110.871 135.528 115.222 135.528 120.57V130.72H131.051V120.57C131.051 112.768 137.439 106.422 145.29 106.422C153.141 106.422 159.53 112.77 159.53 120.57V130.72ZM282.931 136.752C279.186 136.752 276.072 139.426 275.414 142.958H233.86C233.683 131.57 231.348 120.52 226.909 110.095C226.162 108.34 225.358 106.612 224.504 104.918H277.648V102.129H223.034C219.002 94.8042 213.943 88.0994 207.928 82.1218C207.584 81.7815 207.237 81.4428 206.888 81.1071H234.477V78.3164H203.854C200.946 75.7666 197.89 73.4188 194.695 71.2822V33.2785H232.371C233.031 36.8104 236.143 39.4845 239.889 39.4845C244.113 39.4845 247.538 36.0816 247.538 31.8847C247.538 27.6878 244.113 24.2849 239.889 24.2849C236.143 24.2849 233.029 26.9591 232.371 30.4909H191.888V69.4829C188.033 67.1102 183.99 65.0343 179.774 63.2629C176.683 61.9639 173.538 60.8467 170.346 59.9113V32.6259H167.539V59.139C160.767 57.3972 153.798 56.4648 146.698 56.3561V15.0691C150.253 14.4134 152.944 11.3212 152.944 7.59981C152.944 3.40135 149.521 0 145.295 0C141.069 0 137.646 3.40135 137.646 7.59981C137.646 11.3212 140.337 14.4149 143.892 15.0691V56.3561C136.792 56.4648 129.823 57.3972 123.051 59.139V32.6259H120.244V59.9097C117.052 60.8451 113.907 61.9623 110.816 63.2613C106.6 65.0327 102.557 67.1102 98.702 69.4813V30.4894H58.2147C57.5547 26.9575 54.4424 24.2833 50.6968 24.2833C46.4726 24.2833 43.0475 27.6847 43.0475 31.8832C43.0475 36.0816 46.4726 39.483 50.6968 39.483C54.4424 39.483 57.5562 36.8088 58.2147 33.277H95.8901V71.2807C92.6949 73.4172 89.639 75.7635 86.7316 78.3149H56.1065V81.1056H83.696C83.3472 81.4412 83 81.7784 82.656 82.1202C76.641 88.0978 71.5817 94.8026 67.5498 102.127H12.9354V104.917H66.0782C65.2227 106.612 64.4188 108.338 63.6728 110.094C59.2344 120.519 56.8978 131.568 56.7227 142.956H15.1671C14.5071 139.424 11.3949 136.75 7.64925 136.75C3.42347 136.75 0 140.151 0 144.35C0 148.548 3.42347 151.95 7.64925 151.95C11.3949 151.95 14.5087 149.275 15.1671 145.744H56.7227C56.8994 157.132 59.2344 168.181 63.6728 178.606C64.4204 180.362 65.2243 182.089 66.0782 183.783H12.9354V186.572H67.5498C71.5817 193.897 76.641 200.602 82.656 206.579C83 206.92 83.3472 207.258 83.696 207.594H56.1065V210.385H86.7316C89.639 212.935 92.6949 215.282 95.8901 217.419V255.423H58.2147C57.5547 251.891 54.4424 249.217 50.6968 249.217C46.4726 249.217 43.0475 252.62 43.0475 256.816C43.0475 261.013 46.4726 264.416 50.6968 264.416C54.4424 264.416 57.5562 261.742 58.2147 258.21H98.6973V219.218C102.552 221.591 106.595 223.667 110.812 225.438C113.902 226.737 117.047 227.855 120.239 228.79V256.074H123.046V229.561C129.818 231.302 136.787 232.235 143.887 232.344V273.629C140.333 274.285 137.641 277.377 137.641 281.098C137.641 285.297 141.065 288.698 145.29 288.698C149.516 288.698 152.94 285.297 152.94 281.098C152.94 277.377 150.248 274.283 146.693 273.629V232.344C153.794 232.235 160.762 231.302 167.534 229.561V256.074H170.342V228.79C173.534 227.855 176.679 226.737 179.769 225.438C183.985 223.667 188.028 221.589 191.883 219.218V258.21H232.366C233.026 261.742 236.138 264.416 239.884 264.416C244.108 264.416 247.533 261.015 247.533 256.816C247.533 252.618 244.108 249.217 239.884 249.217C236.138 249.217 233.024 251.891 232.366 255.423H194.691V217.419C197.886 215.282 200.942 212.936 203.849 210.385H234.473V207.594H206.883C207.232 207.258 207.579 206.921 207.923 206.579C213.938 200.602 218.997 193.897 223.029 186.572H277.644V183.783H224.499C225.355 182.088 226.159 180.362 226.905 178.606C231.343 168.181 233.68 157.132 233.855 145.744H275.409C276.069 149.275 279.181 151.95 282.927 151.95C287.153 151.95 290.576 148.548 290.576 144.35C290.576 140.151 287.153 136.75 282.927 136.75L282.931 136.752ZM239.885 27.276C242.446 27.276 244.524 29.3395 244.524 31.8847C244.524 34.4299 242.446 36.4934 239.885 36.4934C237.325 36.4934 235.247 34.4299 235.247 31.8847C235.247 29.3395 237.324 27.276 239.885 27.276ZM50.6952 36.4934C48.135 36.4934 46.0566 34.4299 46.0566 31.8847C46.0566 29.3395 48.135 27.276 50.6952 27.276C53.2554 27.276 55.3339 29.3395 55.3339 31.8847C55.3339 34.4299 53.257 36.4934 50.6952 36.4934ZM7.64768 148.96C5.08594 148.96 3.00903 146.895 3.00903 144.351C3.00903 141.808 5.08594 139.743 7.64768 139.743C10.2094 139.743 12.2863 141.806 12.2863 144.351C12.2863 146.897 10.2094 148.96 7.64768 148.96ZM50.6952 261.427C48.135 261.427 46.0566 259.363 46.0566 256.818C46.0566 254.273 48.135 252.209 50.6952 252.209C53.2554 252.209 55.3339 254.273 55.3339 256.818C55.3339 259.363 53.257 261.427 50.6952 261.427ZM239.885 252.209C242.446 252.209 244.524 254.273 244.524 256.818C244.524 259.363 242.446 261.427 239.885 261.427C237.325 261.427 235.247 259.363 235.247 256.818C235.247 254.273 237.324 252.209 239.885 252.209ZM140.652 7.59826C140.652 5.05308 142.73 2.98958 145.29 2.98958C147.851 2.98958 149.929 5.05308 149.929 7.59826C149.929 10.1434 147.852 12.2069 145.29 12.2069C142.729 12.2069 140.652 10.1434 140.652 7.59826ZM149.929 281.104C149.929 283.65 147.851 285.713 145.29 285.713C142.73 285.713 140.652 283.65 140.652 281.104C140.652 278.559 142.729 276.496 145.29 276.496C147.852 276.496 149.929 278.559 149.929 281.104ZM224.323 177.521C220.003 187.668 213.818 196.782 205.94 204.609C198.061 212.436 188.888 218.58 178.676 222.873C168.102 227.315 156.87 229.568 145.29 229.568C133.711 229.568 122.477 227.315 111.905 222.873C101.692 218.581 92.5182 212.436 84.6406 204.609C76.763 196.781 70.5792 187.668 66.258 177.521C61.7867 167.016 59.519 155.856 59.519 144.351C59.519 132.847 61.7867 121.686 66.258 111.182C70.5776 101.035 76.763 91.9203 84.6406 84.0936C92.5198 76.2669 101.692 70.1231 111.905 65.8298C122.479 61.3874 133.711 59.1343 145.29 59.1343C156.87 59.1343 168.104 61.3874 178.676 65.8298C188.888 70.1215 198.062 76.2669 205.94 84.0936C213.818 91.9218 220.001 101.035 224.323 111.182C228.794 121.687 231.062 132.847 231.062 144.351C231.062 155.856 228.794 167.017 224.323 177.521ZM282.933 148.96C280.371 148.96 278.294 146.897 278.294 144.351C278.294 141.806 280.371 139.743 282.933 139.743C285.495 139.743 287.572 141.808 287.572 144.351C287.572 146.895 285.495 148.96 282.933 148.96Z" stroke="url(#paint0_linear_406_1435)" stroke-width="2" stroke-miterlimit="10"/>
<defs>
<linearGradient id="paint0_linear_406_1435" x1="-1.93717" y1="1.57472" x2="309.543" y2="262.133" gradientUnits="userSpaceOnUse">
<stop stop-color="#00BAF2"/>
<stop offset="1" stop-color="#5EB635"/>
</linearGradient>
</defs>
</svg>
