<svg width="51" height="50" viewBox="0 0 51 50" fill="none" xmlns="http://www.w3.org/2000/svg">
<g clip-path="url(#clip0_1147_303)">
<mask id="mask0_1147_303" style="mask-type:luminance" maskUnits="userSpaceOnUse" x="0" y="0" width="51" height="50">
<path d="M38.3788 0H12.6212C5.92685 0 0.5 5.42685 0.5 12.1212V37.8788C0.5 44.5731 5.92685 50 12.6212 50H38.3788C45.0731 50 50.5 44.5731 50.5 37.8788V12.1212C50.5 5.42685 45.0731 0 38.3788 0Z" fill="white"/>
</mask>
<g mask="url(#mask0_1147_303)">
<path d="M50.5 0H0.5V50H50.5V0Z" fill="white"/>
<path d="M50.5 25C64.3072 25 75.5 13.8071 75.5 1.14441e-05C75.5 -13.8071 64.3072 -25 50.5 -25C36.6929 -25 25.5 -13.8071 25.5 1.14441e-05C25.5 13.8071 36.6929 25 50.5 25Z" fill="#ED143B"/>
<path d="M31.3841 23.8585H16.6123V18.0131H31.3841C32.2469 18.0131 32.8469 18.1636 33.148 18.4262C33.4491 18.6888 33.6356 19.1759 33.6356 19.8875V21.9864C33.6356 22.7361 33.4491 23.2233 33.148 23.4859C32.8469 23.7485 32.2469 23.8608 31.3841 23.8608V23.8585ZM32.3975 12.5022H10.3477V37.5H16.6123V29.3672H28.1574L33.6356 37.5H40.6507L34.6108 29.3291C36.8375 28.9991 37.8374 28.3167 38.6621 27.192C39.4867 26.0674 39.9003 24.2693 39.9003 21.8697V19.9953C39.9003 18.5721 39.7495 17.4475 39.4867 16.5855C39.2238 15.7235 38.7745 14.9737 38.1363 14.3003C37.4622 13.6628 36.7117 13.2138 35.8106 12.913C34.9096 12.6504 33.7839 12.5 32.3975 12.5V12.5022Z" fill="#100943"/>
</g>
</g>
<defs>
<clipPath id="clip0_1147_303">
<rect width="50" height="50" fill="white" transform="translate(0.5)"/>
</clipPath>
</defs>
</svg>
