<svg width="600" height="551" viewBox="0 0 600 551" fill="none" xmlns="http://www.w3.org/2000/svg">
<g clip-path="url(#clip0_482_2261)">
<rect x="243.229" y="270.536" width="125.337" height="124.099" rx="8.39415" stroke="#00BAF2" stroke-width="2" stroke-linecap="round" stroke-linejoin="round"/>
<rect x="424.17" y="20.856" width="206.482" height="57.5676" rx="28.7838" stroke="white" stroke-width="2"/>
<rect x="19.8555" y="450.48" width="125.337" height="124.099" rx="8.39415" stroke="#00BAF2" stroke-width="2" stroke-linecap="round" stroke-linejoin="round"/>
<path d="M621.379 215.4L621.142 216.371L621.143 216.372L621.379 215.4ZM535.848 194.507L535.61 195.479L535.611 195.479L535.848 194.507ZM518.948 194.507L519.185 195.479L519.186 195.479L518.948 194.507ZM433.427 215.4L433.663 216.372L433.665 216.371L433.427 215.4ZM433.427 236.336L433.665 235.364L433.664 235.364L433.427 236.336ZM518.958 257.22L519.196 256.248L519.195 256.248L518.958 257.22ZM535.858 257.22L535.621 256.248L535.621 256.248L535.858 257.22ZM621.389 236.336L621.626 237.307L621.626 237.307L621.389 236.336ZM529.029 258.747C529.029 258.194 528.581 257.747 528.029 257.747C527.476 257.747 527.029 258.194 527.029 258.747H529.029ZM527.029 348.098C527.029 348.65 527.476 349.098 528.029 349.098C528.581 349.098 529.029 348.65 529.029 348.098H527.029ZM306.517 225.86V224.86C305.964 224.86 305.517 225.308 305.517 225.86H306.517ZM305.517 270.536C305.517 271.088 305.964 271.536 306.517 271.536C307.069 271.536 307.517 271.088 307.517 270.536H305.517ZM423.167 226.86C423.72 226.86 424.167 226.413 424.167 225.86C424.167 225.308 423.72 224.86 423.167 224.86V226.86ZM400.488 520.684L400.25 521.655L400.251 521.655L400.488 520.684ZM314.957 499.791L314.719 500.763L314.72 500.763L314.957 499.791ZM298.057 499.791L298.294 500.763L298.294 500.763L298.057 499.791ZM212.536 520.684L212.772 521.656L212.773 521.655L212.536 520.684ZM212.536 541.619L212.773 540.648L212.773 540.648L212.536 541.619ZM298.067 562.503L298.304 561.532L298.304 561.532L298.067 562.503ZM314.967 562.503L314.73 561.532L314.729 561.532L314.967 562.503ZM400.498 541.619L400.735 542.591L400.735 542.591L400.498 541.619ZM81.9023 331.345V330.345C81.6371 330.345 81.3828 330.45 81.1952 330.637C81.0077 330.825 80.9023 331.079 80.9023 331.345H81.9023ZM80.9023 449.859C80.9023 450.411 81.3501 450.859 81.9023 450.859C82.4546 450.859 82.9023 450.411 82.9023 449.859H80.9023ZM242.607 332.345C243.159 332.345 243.607 331.897 243.607 331.345C243.607 330.792 243.159 330.345 242.607 330.345V332.345ZM621.616 214.429L536.086 193.536L535.611 195.479L621.142 216.371L621.616 214.429ZM536.086 193.536C530.96 192.281 523.847 192.281 518.711 193.536L519.186 195.479C524.01 194.3 530.797 194.3 535.61 195.479L536.086 193.536ZM518.711 193.536L433.19 214.429L433.665 216.371L519.185 195.479L518.711 193.536ZM433.191 214.428C425.237 216.36 422.167 221.489 422.167 225.864H424.167C424.167 222.538 426.477 218.117 433.663 216.372L433.191 214.428ZM422.167 225.864C422.167 230.238 425.237 235.366 433.19 237.307L433.664 235.364C426.477 233.61 424.167 229.189 424.167 225.864H422.167ZM433.19 237.307L518.721 258.191L519.195 256.248L433.665 235.364L433.19 237.307ZM518.72 258.191C521.902 258.969 525.212 259.126 527.408 259.126V257.126C525.284 257.126 522.155 256.972 519.196 256.248L518.72 258.191ZM527.408 259.126C529.604 259.126 532.915 258.969 536.096 258.191L535.621 256.248C532.662 256.972 529.532 257.126 527.408 257.126V259.126ZM536.096 258.191L621.626 237.307L621.152 235.364L535.621 256.248L536.096 258.191ZM621.626 237.307C629.568 235.366 632.649 230.239 632.649 225.864H630.649C630.649 229.189 628.33 233.61 621.152 235.364L621.626 237.307ZM632.649 225.864C632.649 221.487 629.557 216.36 621.615 214.428L621.143 216.372C628.321 218.118 630.649 222.54 630.649 225.864H632.649ZM527.029 258.747V348.098H529.029V258.747H527.029ZM305.517 225.86V270.536H307.517V225.86H305.517ZM306.517 226.86H423.167V224.86H306.517V226.86ZM527.029 79.4233V193.595H529.029V79.4233H527.029ZM400.725 519.712L315.194 498.82L314.72 500.763L400.25 521.655L400.725 519.712ZM315.195 498.82C310.068 497.564 302.955 497.564 297.819 498.82L298.294 500.763C303.118 499.583 309.905 499.584 314.719 500.763L315.195 498.82ZM297.819 498.82L212.299 519.712L212.773 521.655L298.294 500.763L297.819 498.82ZM212.3 519.712C204.346 521.644 201.276 526.772 201.276 531.147H203.276C203.276 527.821 205.586 523.401 212.772 521.656L212.3 519.712ZM201.276 531.147C201.276 535.522 204.346 540.65 212.299 542.591L212.773 540.648C205.586 538.894 203.276 534.473 203.276 531.147H201.276ZM212.299 542.591L297.829 563.475L298.304 561.532L212.773 540.648L212.299 542.591ZM297.829 563.475C301.01 564.253 304.321 564.41 306.517 564.41V562.41C304.393 562.41 301.263 562.256 298.304 561.532L297.829 563.475ZM306.517 564.41C308.713 564.41 312.023 564.253 315.204 563.475L314.729 561.532C311.77 562.256 308.641 562.41 306.517 562.41V564.41ZM315.204 563.475L400.735 542.591L400.26 540.648L314.73 561.532L315.204 563.475ZM400.735 542.591C408.677 540.65 411.758 535.523 411.758 531.147H409.758C409.758 534.473 407.438 538.894 400.26 540.648L400.735 542.591ZM411.758 531.147C411.758 526.77 408.665 521.644 400.724 519.712L400.251 521.655C407.43 523.402 409.758 527.823 409.758 531.147H411.758ZM80.9023 331.345L80.9023 449.859H82.9023L82.9023 331.345H80.9023ZM81.9023 332.345H242.607V330.345H81.9023V332.345ZM527.029 408.286V551H529.029V408.286H527.029ZM306.137 394.635V498.878H308.137V394.635H306.137Z" fill="url(#paint0_linear_482_2261)"/>
<rect x="424.17" y="349.719" width="206.482" height="57.5676" rx="28.7838" stroke="white" stroke-width="2"/>
</g>
<defs>
<linearGradient id="paint0_linear_482_2261" x1="436.197" y1="327.001" x2="556.575" y2="79.4254" gradientUnits="userSpaceOnUse">
<stop stop-color="#00BAF2"/>
<stop offset="1" stop-color="#5EB635"/>
</linearGradient>
<clipPath id="clip0_482_2261">
<rect width="600" height="551" fill="white"/>
</clipPath>
</defs>
</svg>
