<svg width="223" height="152" viewBox="0 0 223 152" fill="none" xmlns="http://www.w3.org/2000/svg">
<path d="M132.098 69.2834V88.6886H31.8019L31.8019 107.603M70.9048 154.765H192.022V138.798M99.0894 30.9641H165.361C168.166 30.9641 170.44 28.7646 170.44 26.0514V5.90919C170.44 3.19596 168.166 0.99646 165.361 0.99646H99.0894C96.2847 0.99646 94.0111 3.19596 94.0111 5.90919V26.0514C94.0111 28.7646 96.2847 30.9641 99.0894 30.9641ZM6.15643 136.833H57.7012C60.5059 136.833 62.7795 134.634 62.7795 131.921V117.428C62.7795 114.715 60.5059 112.515 57.7012 112.515H6.15643C3.35176 112.515 1.07812 114.715 1.07812 117.428V131.921C1.07812 134.634 3.35176 136.833 6.15643 136.833ZM166.377 104.655H217.922C220.726 104.655 223 102.455 223 99.7423V85.2497C223 82.5365 220.726 80.337 217.922 80.337H166.377C163.572 80.337 161.299 82.5365 161.299 85.2497V99.7423C161.299 102.455 163.572 104.655 166.377 104.655ZM99.0894 65.8445H165.361C168.166 65.8445 170.44 63.6449 170.44 60.9317V40.7895C170.44 38.0763 168.166 35.8768 165.361 35.8768H99.0894C96.2847 35.8768 94.0111 38.0763 94.0111 40.7895V60.9317C94.0111 63.6449 96.2847 65.8445 99.0894 65.8445ZM6.15643 166.064H57.7012C60.5059 166.064 62.7795 163.865 62.7795 161.151V146.659C62.7795 143.946 60.5059 141.746 57.7012 141.746H6.15643C3.35176 141.746 1.07812 143.946 1.07812 146.659V161.151C1.07812 163.865 3.35176 166.064 6.15643 166.064ZM166.377 133.886H217.922C220.726 133.886 223 131.686 223 128.973V114.48C223 111.767 220.726 109.568 217.922 109.568H166.377C163.572 109.568 161.299 111.767 161.299 114.48V128.973C161.299 131.686 163.572 133.886 166.377 133.886ZM164.092 15.8575C164.092 18.9098 161.534 21.3843 158.379 21.3843C155.223 21.3843 152.665 18.9098 152.665 15.8575C152.665 12.8051 155.223 10.3306 158.379 10.3306C161.534 10.3306 164.092 12.8051 164.092 15.8575ZM57.7012 124.552C57.7012 126.993 55.5981 128.973 53.0038 128.973C50.4095 128.973 48.3063 126.993 48.3063 124.552C48.3063 122.11 50.4095 120.13 53.0038 120.13C55.5981 120.13 57.7012 122.11 57.7012 124.552ZM217.922 92.3732C217.922 94.8151 215.819 96.7946 213.224 96.7946C210.63 96.7946 208.527 94.8151 208.527 92.3732C208.527 89.9313 210.63 87.9517 213.224 87.9517C215.819 87.9517 217.922 89.9313 217.922 92.3732ZM164.092 50.7378C164.092 53.7902 161.534 56.2646 158.379 56.2646C155.223 56.2646 152.665 53.7902 152.665 50.7378C152.665 47.6854 155.223 45.211 158.379 45.211C161.534 45.211 164.092 47.6854 164.092 50.7378ZM57.7012 153.782C57.7012 156.224 55.5981 158.204 53.0038 158.204C50.4095 158.204 48.3063 156.224 48.3063 153.782C48.3063 151.34 50.4095 149.361 53.0038 149.361C55.5981 149.361 57.7012 151.34 57.7012 153.782ZM217.922 121.604C217.922 124.046 215.819 126.025 213.224 126.025C210.63 126.025 208.527 124.046 208.527 121.604C208.527 119.162 210.63 117.182 213.224 117.182C215.819 117.182 217.922 119.162 217.922 121.604Z" stroke="url(#paint0_linear_406_1471)" stroke-width="2"/>
<defs>
<linearGradient id="paint0_linear_406_1471" x1="115.365" y1="5.41791" x2="206.279" y2="156.042" gradientUnits="userSpaceOnUse">
<stop stop-color="#00BAF2"/>
<stop offset="1" stop-color="#5EB635"/>
</linearGradient>
</defs>
</svg>
