<svg width="26" height="25" viewBox="0 0 26 25" fill="none" xmlns="http://www.w3.org/2000/svg">
<path d="M25.8593 23.2822C24.0116 20.0991 21.0539 17.71 17.5533 16.573C19.2312 15.5753 20.5351 14.0542 21.2647 12.2435C21.9943 10.4329 22.1093 8.43275 21.5919 6.55042C21.0745 4.6681 19.9534 3.00771 18.4009 1.82432C16.8483 0.640926 14.9502 0 12.998 0C11.0459 0 9.14777 0.640926 7.59522 1.82432C6.04268 3.00771 4.9216 4.6681 4.40422 6.55042C3.88684 8.43275 4.00177 10.4329 4.73137 12.2435C5.46096 14.0542 6.76486 15.5753 8.44274 16.573C4.94221 17.71 1.98453 20.0991 0.136747 23.2822C0.0460263 23.4314 -0.00195313 23.6027 -0.00195312 23.7773C-0.00195312 23.952 0.0460263 24.1232 0.136747 24.2725C0.221387 24.4242 0.34541 24.5503 0.495736 24.6375C0.646061 24.7246 0.817118 24.7696 0.990866 24.7676H25.0052C25.179 24.7696 25.35 24.7246 25.5004 24.6375C25.6507 24.5503 25.7747 24.4242 25.8593 24.2725C25.9501 24.1232 25.998 23.952 25.998 23.7773C25.998 23.6027 25.9501 23.4314 25.8593 23.2822Z" fill="white"/>
</svg>
