<svg width="51" height="50" viewBox="0 0 51 50" fill="none" xmlns="http://www.w3.org/2000/svg">
<g clip-path="url(#clip0_641_852)">
<path d="M4 3.5C0.5 7.03333 0.5 12.6833 0.5 24V26C0.5 37.3 0.5 42.95 4 46.5C7.53333 50 13.1833 50 24.5 50H26.5C37.8 50 43.45 50 47 46.5C50.5 42.9667 50.5 37.3167 50.5 26V24C50.5 12.7 50.5 7.05 47 3.5C43.4667 0 37.8167 0 26.5 0H24.5C13.2 0 7.55 0 4 3.5Z" fill="#0077FF"/>
<path d="M27.1022 36.0169C15.7022 36.0169 9.20221 28.2169 8.93555 15.2169H14.6689C14.8522 24.7502 19.0522 28.7835 22.3855 29.6169V15.2169H27.7689V23.4335C31.0522 23.0835 34.5189 19.3335 35.6856 15.2002H41.0522C40.6146 17.3398 39.7405 19.3662 38.4845 21.1527C37.2284 22.9393 35.6175 24.4476 33.7522 25.5835C35.8338 26.6196 37.672 28.0851 39.1458 29.8835C40.6196 31.6819 41.6954 33.7723 42.3022 36.0169H36.3855C35.1189 32.0669 31.9522 29.0002 27.7689 28.5835V36.0169H27.1189H27.1022Z" fill="white"/>
</g>
<defs>
<clipPath id="clip0_641_852">
<rect width="50" height="50" fill="white" transform="translate(0.5)"/>
</clipPath>
</defs>
</svg>
