<svg width="243" height="178" viewBox="0 0 243 178" fill="none" xmlns="http://www.w3.org/2000/svg">
<g clip-path="url(#clip0_424_2368)">
<path d="M138.403 132.605L128.563 116.379L118.925 132.605H107.387L122.21 108.166L107.104 85.4767H119.156L128.834 100.625L138.064 85.4767H149.602L134.739 108.906L150.009 132.605H138.403Z" fill="white"/>
<path d="M187.511 116.581C187.511 126.949 179.639 133.413 169.322 133.413C160.228 133.413 152.571 128.431 151.824 117.591H161.665C162.344 122.304 166.145 124.324 170.285 124.324C175.443 124.324 177.67 120.89 177.67 116.447C177.67 111.801 174.209 108.906 169.39 108.906C165.386 108.906 162.739 110.791 161.518 112.811H152.111L155.363 85.4767H186.302L185.272 94.6332H163.14L162.262 103.679C162.262 103.679 164.587 100.962 171.63 100.962C180.114 100.962 187.511 106.617 187.511 116.581Z" fill="white"/>
<path d="M152.991 79.6073C147.75 59.336 131.116 45.0941 96.6012 45.0941H54.9297L60.5865 83.0377C64.8419 117.276 78.0426 128.291 101.403 132.346C101.513 132.363 102.25 132.467 102.261 131.608C102.265 131.299 102.066 131.032 101.796 130.919C86.0063 124.324 84.2042 102.698 80.8322 80.9937L78.2214 63.6991H102.01C123.943 63.6991 140.874 63.3555 151.597 80.1482C151.758 80.3856 152.005 80.5596 152.299 80.5596C152.714 80.5596 153.021 80.2257 153.021 79.814C153.021 79.7422 153.01 79.673 152.991 79.6073Z" fill="#55B435"/>
</g>
<defs>
<clipPath id="clip0_424_2368">
<rect width="132.545" height="88.4067" fill="white" transform="translate(54.9297 45.0933)"/>
</clipPath>
</defs>
</svg>
