<svg width="51" height="50" viewBox="0 0 51 50" fill="none" xmlns="http://www.w3.org/2000/svg">
<g clip-path="url(#clip0_641_847)">
<path d="M30.3214 29.8214C26.3929 33.875 26.1071 38.9286 25.7679 50C36.0893 50 43.2143 49.9643 46.8929 46.3929C50.4643 42.7143 50.5 35.25 50.5 25.2679C39.4286 25.625 34.375 25.8929 30.3214 29.8214ZM0.5 25.2679C0.5 35.25 0.535714 42.7143 4.10714 46.3929C7.78571 49.9643 14.9107 50 25.2321 50C24.875 38.9286 24.6071 33.875 20.6786 29.8214C16.625 25.8929 11.5714 25.6071 0.5 25.2679ZM25.2321 0C14.9286 0 7.78571 0.0357143 4.10714 3.60714C0.535714 7.28571 0.5 14.75 0.5 24.7321C11.5714 24.375 16.625 24.1071 20.6786 20.1786C24.6071 16.125 24.8929 11.0714 25.2321 0ZM30.3214 20.1786C26.3929 16.125 26.1071 11.0714 25.7679 0C36.0893 0 43.2143 0.0357143 46.8929 3.60714C50.4643 7.28571 50.5 14.75 50.5 24.7321C39.4286 24.375 34.375 24.1071 30.3214 20.1786Z" fill="white"/>
</g>
<defs>
<clipPath id="clip0_641_847">
<rect width="50" height="50" fill="white" transform="translate(0.5)"/>
</clipPath>
</defs>
</svg>
