<svg width="51" height="50" viewBox="0 0 51 50" fill="none" xmlns="http://www.w3.org/2000/svg">
<g clip-path="url(#clip0_641_839)">
<mask id="mask0_641_839" style="mask-type:luminance" maskUnits="userSpaceOnUse" x="0" y="0" width="51" height="50">
<path d="M50.5 0H0.5V50H50.5V0Z" fill="white"/>
</mask>
<g mask="url(#mask0_641_839)">
<path fill-rule="evenodd" clip-rule="evenodd" d="M50 14.3026C50 14.3026 49.511 10.8734 48.0125 9.36365C46.111 7.381 43.9797 7.37173 43.003 7.2567C36.0062 6.75293 25.511 6.75293 25.511 6.75293H25.489C25.489 6.75293 14.9937 6.75293 7.99687 7.2567C7.01875 7.37173 4.88908 7.381 2.98594 9.36365C1.4875 10.8738 1 14.3026 1 14.3026C1 14.3026 0.5 18.3304 0.5 22.3564V26.1322C0.5 30.1597 1 34.1859 1 34.1859C1 34.1859 1.4875 37.6149 2.98594 39.1249C4.88908 41.1074 7.3875 41.0454 8.5 41.2522C12.5 41.6349 25.5 41.7529 25.5 41.7529C25.5 41.7529 36.0062 41.7374 43.003 41.2337C43.9797 41.1172 46.111 41.1079 48.0125 39.1252C49.511 37.6149 50 34.1864 50 34.1864C50 34.1864 50.5 30.1599 50.5 26.1322V22.3564C50.5 18.3304 50 14.3026 50 14.3026ZM20.3375 30.7074L20.3359 16.7257L33.8453 23.7407L20.3375 30.7074Z" fill="#FF0000"/>
<path d="M20.3375 30.7074L20.3359 16.7257L33.8453 23.7407L20.3375 30.7074Z" fill="white"/>
</g>
</g>
<defs>
<clipPath id="clip0_641_839">
<rect width="50" height="50" fill="white" transform="translate(0.5)"/>
</clipPath>
</defs>
</svg>
